<?xml version="1.0" standalone="no"?>
<!DOCTYPE svg PUBLIC "-//W3C//DTD SVG 1.1//EN" "http://www.w3.org/Graphics/SVG/1.1/DTD/svg11.dtd" >
<svg xmlns="http://www.w3.org/2000/svg">
<metadata></metadata>
<defs>
<font id="novel_sans_rd_pro_extralighRg" horiz-adv-x="1208" >
<font-face units-per-em="2048" ascent="1638" descent="-410" />
<missing-glyph horiz-adv-x="317" />
<glyph unicode="&#xfb03;" horiz-adv-x="1796" d="M41 928v26q0 28 29 31l135 14v76q0 145 18 230q30 139 125.5 208.5t231.5 69.5q65 0 114 -12q28 -6 25 -35l-4 -39q-3 -29 -27 -29q-4 0 -16.5 2t-35.5 4.5t-52 2.5q-113 0 -177 -56t-75 -190q-4 -50 -4 -111v-121h524v37q0 70 2.5 115.5t12.5 107t34.5 112.5t63.5 93 q113 119 338 119q110 0 217 -29q27 -9 24 -36l-4 -39q-3 -27 -29 -27q-5 0 -34 6t-77.5 12.5t-99.5 6.5q-168 0 -251 -86q-27 -28 -43 -63t-22 -84.5t-7.5 -83t-1.5 -99.5v-62h262q15 0 23.5 -8.5t7.5 -23.5l-4 -41q-3 -29 -31 -29h-258v-866q0 -31 -31 -31h-61 q-31 0 -31 31v866h-524v-866q0 -31 -31 -31h-61q-31 0 -31 31v866h-133q-31 0 -31 31zM1499 31v956q0 28 29 31l61 6q33 3 33 -29v-964q0 -31 -31 -31h-61q-31 0 -31 31z" />
<glyph unicode="&#xfb04;" horiz-adv-x="1816" d="M41 928v26q0 28 29 31l135 14v76q0 145 18 230q30 139 125.5 208.5t231.5 69.5q65 0 114 -12q28 -6 25 -35l-4 -39q-3 -29 -27 -29q-3 0 -35 4.5t-69 4.5q-113 0 -177 -56t-75 -190q-4 -50 -4 -111v-121h524v37q0 70 2.5 115.5t12.5 107t34.5 112.5t63.5 93 q113 119 338 119q109 0 196 -20l90 10q33 3 33 -29v-1513q0 -31 -31 -31h-61q-31 0 -31 31v1423q-92 23 -199 23q-168 0 -251 -86q-27 -28 -43 -63t-22 -84.5t-7.5 -83t-1.5 -99.5v-62h262q15 0 23.5 -8.5t7.5 -23.5l-4 -41q-3 -29 -31 -29h-258v-866q0 -31 -31 -31h-61 q-31 0 -31 31v866h-524v-866q0 -31 -31 -31h-61q-31 0 -31 31v866h-133q-31 0 -31 31z" />
<glyph horiz-adv-x="2048" />
<glyph horiz-adv-x="2048" />
<glyph unicode="&#xd;" horiz-adv-x="2048" />
<glyph unicode=" "  horiz-adv-x="317" />
<glyph unicode="&#x09;" horiz-adv-x="317" />
<glyph unicode="&#xa0;" horiz-adv-x="317" />
<glyph unicode="!" horiz-adv-x="518" d="M164 86q0 39 27.5 67.5t70.5 28.5q41 0 66.5 -29.5t25.5 -72.5q0 -41 -28.5 -68.5t-69.5 -27.5q-39 0 -65.5 29.5t-26.5 72.5zM184 1434q0 20 21 20h104q21 0 21 -20q-7 -546 -17 -934q-2 -54 -7.5 -68t-26.5 -14h-43q-22 0 -27.5 14.5t-7.5 67.5z" />
<glyph unicode="&#x22;" horiz-adv-x="727" d="M123 1434q0 20 20 20h99q20 0 20 -20l-4 -164q-2 -65 -12 -289q-3 -20 -23 -20h-61q-20 0 -23 20q-10 224 -12 289zM465 1434q0 20 20 20h99q20 0 20 -20l-4 -164q-2 -65 -12 -289q-3 -20 -23 -20h-61q-20 0 -23 20q-10 224 -12 289z" />
<glyph unicode="#" d="M51 326l6 69q3 21 23 21h176l61 495h-174q-23 0 -20 23l8 67q3 19 21 19h178l35 268q3 19 20 19h80q23 0 20 -23l-32 -264h374l35 268q3 19 21 19h80q23 0 20 -23l-33 -264h174q24 0 21 -23l-8 -67q-3 -19 -21 -19h-178l-64 -495h177q9 0 14 -6t4 -15l-6 -69 q-3 -21 -23 -21h-178l-35 -287q-3 -18 -20 -18h-82q-23 0 -20 23l36 282h-374l-37 -287q-3 -18 -21 -18h-82q-23 0 -20 23l37 282h-174q-9 0 -14.5 6t-4.5 15zM377 416h377l61 495h-375z" />
<glyph unicode="$" d="M145 166q0 18 15 18q6 0 50 -16.5t125 -33.5t175 -19l22 598q-183 76 -263.5 174.5t-80.5 220.5q0 135 104 234t283 116l9 174q0 21 20 21l55 -2q21 -3 21 -23l-6 -166q144 -4 276 -45q20 -7 17 -24l-6 -78q-3 -19 -19 -19q-2 0 -41 12t-103.5 24.5t-127.5 13.5l-19 -543 q365 -141 365 -414q0 -66 -25.5 -130t-74 -119.5t-130 -94.5t-184.5 -49l-6 -174q0 -9 -6 -15t-15 -6l-55 2q-20 3 -20 23l6 166q-163 3 -340 67q-16 5 -16 23zM322 1114q0 -77 52 -142.5t181 -129.5l18 501q-122 -13 -186.5 -78.5t-64.5 -150.5zM608 119q135 19 199.5 93.5 t64.5 172.5q0 38 -9.5 71t-34 71t-75 75.5t-124.5 71.5z" />
<glyph unicode="%" horiz-adv-x="1607" d="M92 1104q0 96 25 169t68.5 116t98 64.5t117.5 21.5q135 0 217 -92t82 -265q0 -186 -87.5 -278t-221.5 -92q-135 0 -217 91.5t-82 264.5zM203 1116q0 -139 50.5 -209.5t145.5 -70.5q191 0 191 270q0 139 -51 209.5t-146 70.5q-190 0 -190 -270zM424 12l717 1536 q10 19 26 11l54 -25q19 -9 10 -27l-715 -1536q-9 -19 -27 -10l-55 25q-16 8 -10 26zM918 336q0 96 25 169t68.5 116t98 64.5t117.5 21.5q135 0 217 -92t82 -265q0 -186 -87.5 -278t-221.5 -92q-135 0 -217 91.5t-82 264.5zM1028 348q0 -139 51 -209.5t146 -70.5 q190 0 190 270q0 139 -50.5 209.5t-145.5 70.5q-191 0 -191 -270z" />
<glyph unicode="&#x26;" horiz-adv-x="1609" d="M106 391q0 250 316 406q-112 101 -157.5 184t-45.5 166q0 140 103 234t268 94q162 0 259 -90t97 -228q0 -244 -321 -397q238 -232 471 -410q114 163 114 416q0 114 -18 219q0 1 -1.5 9t-1.5 11t1 8.5t5 8t11 2.5h82q20 0 23 -16q32 -121 32 -234q0 -142 -33.5 -261.5 t-113.5 -236.5q134 -103 328 -208q22 -12 2 -29l-72 -62q-13 -13 -27 -4q-150 82 -313 207q-93 -97 -224.5 -148.5t-271.5 -51.5q-128 0 -228.5 35.5t-161 95t-91.5 131t-31 149.5zM242 399q0 -123 103 -214t284 -91q226 0 389 160q-222 175 -518 461q-136 -56 -197 -139.5 t-61 -176.5zM346 1153q0 -73 37 -138t158 -177q84 37 142.5 82t85.5 88t37.5 76.5t10.5 64.5q0 99 -64.5 159t-170.5 60q-109 0 -172.5 -58.5t-63.5 -156.5z" />
<glyph unicode="'" horiz-adv-x="385" d="M123 1434q0 20 20 20h99q20 0 20 -20l-4 -164q-2 -65 -12 -289q-3 -20 -23 -20h-61q-20 0 -23 20q-10 224 -12 289z" />
<glyph unicode="(" horiz-adv-x="942" d="M184 553q0 759 609 1171q13 11 28 2l58 -34q11 -6 11 -14.5t-11 -14.5q-572 -388 -572 -1110t572 -1110q11 -6 11 -14.5t-11 -14.5l-58 -35q-14 -8 -28 3q-609 412 -609 1171z" />
<glyph unicode=")" horiz-adv-x="942" d="M52 -571.5q0 8.5 11 14.5q572 388 572 1110t-572 1110q-10 6 -9.5 14.5t9.5 14.5l58 34q15 9 29 -2q608 -412 608 -1171t-608 -1171q-15 -12 -29 -3l-58 35q-11 6 -11 14.5z" />
<glyph unicode="*" horiz-adv-x="970" d="M144 909q3 10 24 23q172 97 276 135q-104 38 -276 135q-21 13 -24 23t8 30l14 25q10 20 21.5 22.5t29.5 -8.5q137 -82 258 -176q-20 126 -20 322q0 28 26 28h49q27 0 27 -28q0 -196 -20 -322q121 94 258 176q18 11 29.5 8.5t21.5 -22.5l14 -25q11 -20 8 -30t-24 -23 q-146 -87 -277 -135q131 -48 277 -135q21 -13 24 -23t-8 -30l-14 -25q-10 -20 -21.5 -22.5t-29.5 8.5q-137 82 -258 176q20 -126 20 -322q0 -28 -27 -28h-49q-26 0 -26 28q0 196 20 322q-121 -94 -258 -176q-18 -11 -29.5 -8.5t-21.5 22.5l-14 25q-11 20 -8 30z" />
<glyph unicode="+" horiz-adv-x="1095" d="M61 602v66q0 20 21 20h412v373q0 20 20 20h68q20 0 20 -20v-373h412q20 0 20 -20v-66q0 -20 -20 -20h-412v-373q0 -21 -20 -21h-68q-20 0 -20 21v373h-412q-21 0 -21 20z" />
<glyph unicode="," horiz-adv-x="378" d="M10 -258q0 6 24.5 32t54.5 57.5t54.5 80t24.5 94.5q0 33 -10.5 60.5t-22.5 42.5t-22.5 29.5t-10.5 23.5q0 20 29 35.5t51 15.5q55 0 90 -49t35 -109q0 -133 -112 -262q-92 -102 -115 -102q-10 0 -37 20q-33 20 -33 31z" />
<glyph unicode="-" horiz-adv-x="610" d="M41 532v62q0 20 20 20h488q20 0 20 -20v-62q0 -20 -20 -20h-488q-20 0 -20 20z" />
<glyph unicode="." horiz-adv-x="456" d="M133 82q0 39 27.5 67.5t70.5 28.5q41 0 67 -29.5t26 -72.5q0 -41 -28.5 -68.5t-70.5 -27.5q-39 0 -65.5 29.5t-26.5 72.5z" />
<glyph unicode="/" horiz-adv-x="944" d="M8 -451l821 2196q6 18 25 12l72 -26q18 -6 10 -25l-821 -2195q-6 -19 -25 -13l-72 27q-16 5 -10 24z" />
<glyph unicode="0" d="M84 711q0 372 143.5 568t393.5 196q109 0 198.5 -42.5t158 -129t106.5 -229t38 -331.5q0 -372 -143 -567.5t-393 -195.5q-109 0 -199 42.5t-158.5 128.5t-106.5 229t-38 331zM225 727q0 -307 100 -468t271 -161q178 0 281.5 155.5t103.5 473.5q0 307 -100 468t-271 161 q-178 0 -281.5 -155.5t-103.5 -473.5z" />
<glyph unicode="1" d="M164 1368q-3 32 26 35l324 45q43 6 61 6h68q31 0 31 -31v-1312l270 -9q31 0 31 -30v-41q0 -31 -31 -31h-704q-31 0 -31 31v41q0 30 31 30l303 9v1222l-340 -41q-32 -3 -35 27z" />
<glyph unicode="2" d="M176 1337q-3 26 29 45q152 93 327 93q193 0 317 -110.5t124 -297.5q0 -86 -29 -171.5t-119.5 -219t-249.5 -307.5l-227 -250h674q32 0 29 -33l-7 -57q-3 -29 -32 -29h-803q-31 0 -31 31v55q0 21 15 39l286 321q143 161 223 280t103.5 189t23.5 142q0 140 -88 219.5 t-225 79.5q-62 0 -121 -16t-94 -34.5t-64 -34.5t-38 -16q-16 0 -19 25z" />
<glyph unicode="3" d="M166 190q0 27 18 27q8 0 41 -18.5t75 -40t112 -40t143 -18.5q140 0 223.5 75.5t83.5 197.5q0 114 -99.5 203.5t-311.5 121.5q-31 3 -31 33v51q0 30 31 33q106 15 184 47.5t120 75t61.5 87.5t19.5 93q0 102 -80 170t-209 68q-68 0 -130 -16t-97 -34.5t-63.5 -34.5 t-37.5 -16q-16 0 -20 25l-4 57q-3 24 18 39q151 99 340 99q98 0 179.5 -29t134 -78t81.5 -111t29 -129q0 -54 -17.5 -106t-54 -102t-101.5 -92t-151 -66q90 -20 161 -63t112 -97t61.5 -110t20.5 -111q0 -78 -29.5 -149t-85 -127.5t-144 -90.5t-198.5 -34q-194 0 -363 106 q-20 11 -20 37z" />
<glyph unicode="4" d="M72 412v51q0 19 12 37l647 936q15 18 39 18h92q31 0 31 -31v-925h180q31 0 31 -33l-6 -55q-3 -29 -31 -29h-174v-350q0 -31 -31 -31h-67q-31 0 -31 31v350h-662q-30 0 -30 31zM225 498h539v620q0 46 1.5 89.5t2.5 64.5l2 20z" />
<glyph unicode="5" d="M205 98v72q0 27 18 27q7 0 34.5 -15t63 -33.5t97 -33.5t127.5 -15q145 0 227 87t82 206q0 70 -35 135.5t-105 123.5t-192.5 97.5t-281.5 49.5q-35 3 -29 35l111 583q3 26 30 29l643 41q17 1 25 -7t6 -24l-8 -65q-3 -28 -33 -31l-557 -37l-76 -414q170 -18 298.5 -68 t202.5 -120.5t110 -150.5t36 -169q0 -61 -18 -121t-56.5 -114t-91.5 -95.5t-129 -66t-165 -24.5q-164 0 -314 81q-20 11 -20 37z" />
<glyph unicode="6" d="M137 645q0 165 39.5 300.5t110.5 231.5t170 161.5t217.5 96.5t253.5 31q28 0 53 -2q31 0 31 -30v-58q0 -30 -29 -30q-8 0 -25.5 1t-33.5 1q-131 0 -243.5 -37t-198 -107t-137 -179t-58.5 -247q150 86 315 86q199 0 332 -118.5t133 -315.5q0 -88 -30.5 -168.5 t-86.5 -143.5t-142 -100.5t-190 -37.5q-99 0 -184.5 40.5t-152.5 119.5t-105.5 209t-38.5 296zM276 655q-4 -120 16 -218t55 -160t83 -104t96.5 -59.5t98.5 -17.5q132 0 216.5 87t84.5 235q0 140 -93 232.5t-249 92.5q-167 0 -308 -88z" />
<glyph unicode="7" d="M160 1360l6 65q3 29 33 29h802q31 0 31 -31v-57q0 -20 -8 -39l-627 -1317q-12 -26 -39 -16l-57 20q-32 10 -16 39l604 1274h-701q-31 0 -28 33z" />
<glyph unicode="8" d="M135 358q0 246 305 381q-77 35 -132.5 80t-84.5 93t-42 93.5t-13 92.5q0 160 124 268.5t318 108.5q193 0 307.5 -99t114.5 -254q0 -251 -287 -368q95 -38 163 -87.5t102.5 -102.5t49.5 -102t15 -100q0 -69 -30.5 -135.5t-87.5 -122t-151 -90t-210 -34.5 q-208 0 -334.5 105t-126.5 273zM276 365q0 -111 89.5 -190t244.5 -79q146 0 232 78.5t86 179.5q0 232 -350 338q-168 -65 -235 -144.5t-67 -182.5zM307 1106q0 -200 289 -309q301 104 301 321q0 104 -80 174t-215 70q-134 0 -214.5 -71t-80.5 -185z" />
<glyph unicode="9" d="M141 1024q0 119 51.5 220t156 166t241.5 65q99 0 184.5 -40.5t152.5 -120t105.5 -209.5t38.5 -296q0 -205 -60.5 -364t-168 -257.5t-249.5 -149t-312 -50.5q-29 0 -54 2q-30 0 -30 30v58q0 31 30 31q5 0 22 -1.5t36 -1.5q131 0 243.5 37t198 107t137 179t58.5 247 q-150 -86 -316 -86q-199 0 -332 118.5t-133 315.5zM283 1036q0 -140 93 -232.5t249 -92.5q166 0 307 88q4 120 -16 218t-55 160t-82.5 104t-96 59.5t-98.5 17.5q-132 0 -216.5 -87t-84.5 -235z" />
<glyph unicode=":" horiz-adv-x="456" d="M133 82q0 39 27.5 67.5t70.5 28.5q41 0 67 -29.5t26 -72.5q0 -41 -28.5 -68.5t-70.5 -27.5q-39 0 -65.5 29.5t-26.5 72.5zM133 836q0 39 27.5 67.5t70.5 28.5q41 0 67 -30t26 -73q0 -41 -28.5 -68.5t-70.5 -27.5q-39 0 -65.5 30t-26.5 73z" />
<glyph unicode=";" horiz-adv-x="483" d="M51 -258q0 6 24.5 32t54.5 57.5t54.5 80t24.5 94.5q0 33 -10.5 60.5t-22.5 42.5t-22.5 29.5t-10.5 23.5q0 20 29 35.5t51 15.5q55 0 90 -49t35 -109q0 -133 -112 -262q-92 -102 -115 -102q-10 0 -37 20q-33 20 -33 31zM160 836q0 39 27.5 67.5t70.5 28.5q41 0 66.5 -29.5 t25.5 -73.5q0 -41 -28.5 -68.5t-69.5 -27.5q-39 0 -65.5 30t-26.5 73z" />
<glyph unicode="&#x3c;" horiz-adv-x="1146" d="M61 606v78q0 16 15 25l985 489q11 6 17.5 2t6.5 -16v-72q0 -17 -14 -25l-881 -438l881 -438q14 -8 14 -25v-80q0 -12 -6.5 -16t-17.5 2l-985 490q-15 9 -15 24z" />
<glyph unicode="=" horiz-adv-x="1095" d="M61 381v65q0 21 21 21h932q20 0 20 -21v-65q0 -21 -20 -21h-932q-9 0 -15 6t-6 15zM61 799v65q0 21 21 21h932q20 0 20 -21v-65q0 -21 -20 -21h-932q-9 0 -15 6t-6 15z" />
<glyph unicode="&#x3e;" horiz-adv-x="1146" d="M61 106v74q0 16 15 25l878 438l-878 438q-15 9 -15 25v78q0 12 7.5 16t17.5 -2l985 -489q14 -8 14 -25v-78q0 -16 -14 -24l-985 -490q-10 -6 -17.5 -2t-7.5 16z" />
<glyph unicode="?" horiz-adv-x="849" d="M117 1401q-3 21 35 35q102 39 217 39q167 0 267.5 -90.5t100.5 -217.5q0 -88 -44.5 -156.5t-143.5 -144.5l-47 -37q-80 -63 -107.5 -110.5t-27.5 -102.5q0 -35 13.5 -73t27.5 -64.5t14 -34.5t-14 -14l-58 -20q-18 -7 -39 22q-32 42 -52.5 99.5t-20.5 103.5q0 68 40 135.5 t138 144.5l47 37q81 63 112 111.5t31 107.5q0 80 -69.5 136.5t-186.5 56.5q-61 0 -135 -20.5t-76 -20.5q-12 0 -14 20zM258 86q0 39 27.5 67.5t70.5 28.5q41 0 67 -29.5t26 -72.5q0 -41 -28.5 -68.5t-70.5 -27.5q-39 0 -65.5 29.5t-26.5 72.5z" />
<glyph unicode="@" horiz-adv-x="2277" d="M184 498q0 216 76 400t207 310t309.5 196.5t380.5 70.5q216 0 394 -67.5t296 -185t182 -276t64 -340.5q0 -134 -31 -244.5t-81 -182t-115.5 -120t-131 -69.5t-130.5 -21q-169 0 -232 146q-138 -138 -328 -138q-134 0 -221.5 73.5t-87.5 189.5q0 49 14.5 92.5t56 88.5 t106.5 78t175 55t254 24v43q0 145 -24 196q-53 115 -219 115q-72 0 -140 -19t-108 -38t-43 -19q-12 0 -14 18l-5 60q0 16 13 24q132 84 305 84q234 0 315 -151q26 -47 33.5 -104t7.5 -152v-375q0 -81 37.5 -133.5t110.5 -52.5q43 0 88.5 15.5t94 54t86.5 95.5t62.5 148 t24.5 203q0 125 -32.5 238.5t-100 211t-163.5 169.5t-230 112.5t-293 40.5q-171 0 -323.5 -61.5t-266 -170.5t-180 -269.5t-66.5 -348.5q0 -220 67 -394t188.5 -286.5t288 -171.5t368.5 -59q89 0 157 10.5t101.5 20.5t38.5 10q16 0 16 -23l2 -68q0 -18 -18 -24 q-143 -39 -308 -39q-180 0 -335.5 39.5t-283 121t-218.5 200.5t-141 284t-50 365zM860 250q0 -72 55.5 -119t149.5 -47q154 0 276 113v276q-133 2 -230 -16t-150 -51.5t-77 -72t-24 -83.5z" />
<glyph unicode="A" horiz-adv-x="1470" d="M127 35l510 1392q9 25 35 25l86 4q25 0 37 -24l542 -1397q4 -8 4 -14q1 -6 -3 -11q-6 -10 -25 -10h-76q-25 0 -37 25l-166 434h-622l-154 -434q-9 -25 -35 -25h-71q-17 0 -24 10q-4 5 -4 12q0 6 3 13zM451 571h540l-217 570l-63 174q0 -1 -5.5 -17.5l-20 -60t-34.5 -98.5 z" />
<glyph unicode="B" horiz-adv-x="1296" d="M225 31v1392q0 31 31 31h225q248 0 385.5 -97t137.5 -280q0 -113 -70 -200t-184 -115q170 -24 263 -128t93 -243q0 -98 -52.5 -182t-140.5 -135q-129 -74 -403 -74h-254q-31 0 -31 31zM356 109h168q182 0 271 34q174 70 174 244q0 140 -122 225.5t-341 85.5h-150v-589z M356 803h127q86 0 141.5 8t100.5 33q67 38 105 97.5t38 133.5q0 130 -103.5 201.5t-272.5 71.5h-136v-545z" />
<glyph unicode="C" horiz-adv-x="1652" d="M154 721q0 212 78 366.5t204 245.5q198 142 502 142q231 0 442 -84q26 -10 23 -37l-6 -62q-2 -24 -25 -24q-8 0 -66.5 21.5t-160.5 43t-215 21.5q-267 0 -422 -123q-217 -171 -217 -504q0 -102 26.5 -195t81.5 -172t133 -137t186 -90.5t236 -32.5q96 0 188.5 17.5t148 38 t97.5 38t48 17.5q18 0 18 -22v-7l-6 -61q-3 -27 -25 -35q-229 -106 -481 -106q-314 0 -508 145q-130 98 -205 255t-75 341z" />
<glyph unicode="D" horiz-adv-x="1687" d="M225 31v1392q0 31 31 31q129 2 346 2q127 0 231 -11.5t208 -40t190 -83.5t149 -135q144 -183 144 -428q0 -268 -135 -457q-106 -148 -275 -226.5t-434 -78.5q-279 0 -424 4q-31 0 -31 31zM356 117q123 -4 336 -4q221 0 361.5 64.5t228.5 193.5q104 152 104 368 q0 227 -120 373q-103 124 -258.5 175.5t-413.5 51.5q-156 0 -238 -2v-1220z" />
<glyph unicode="E" horiz-adv-x="1226" d="M225 31v1392q0 31 31 31h690q31 0 31 -31v-53q0 -31 -31 -31h-590v-542h543q31 0 31 -31v-49q0 -31 -31 -31h-543v-571h633q31 0 31 -33l-6 -53q-3 -29 -33 -29h-725q-31 0 -31 31z" />
<glyph unicode="F" horiz-adv-x="1181" d="M225 31v1392q0 31 31 31h690q31 0 31 -31v-53q0 -31 -31 -31h-590v-591h572q30 0 30 -31v-53q0 -31 -30 -31h-572v-602q0 -31 -30 -31h-70q-31 0 -31 31z" />
<glyph unicode="G" horiz-adv-x="1667" d="M154 729q0 206 73.5 355t196.5 239q212 152 528 152q233 0 434 -74q26 -10 23 -37l-6 -61q-3 -25 -21 -25q-1 0 -61.5 19t-164.5 38t-210 19q-293 0 -450 -133q-205 -171 -205 -480q0 -135 41.5 -250t122 -203t208.5 -138t291 -50q168 0 355 50v477q0 30 30 30h70 q31 0 31 -30v-389q0 -51 1 -91.5t1 -50.5q0 -26 -25 -35q-245 -81 -475 -81q-319 0 -510 143q-130 98 -204 257.5t-74 348.5z" />
<glyph unicode="H" horiz-adv-x="1554" d="M225 31v1392q0 31 31 31h70q30 0 30 -31v-632h842v632q0 31 31 31h69q31 0 31 -31v-1392q0 -31 -31 -31h-69q-31 0 -31 31v645h-842v-645q0 -31 -30 -31h-70q-31 0 -31 31z" />
<glyph unicode="I" horiz-adv-x="581" d="M225 31v1392q0 31 31 31h70q30 0 30 -31v-1392q0 -31 -30 -31h-70q-31 0 -31 31z" />
<glyph unicode="J" horiz-adv-x="581" d="M-4 -467q-6 9 -6 18q0 13 14 25q134 101 177.5 198.5t43.5 270.5v1378q0 31 31 31h70q30 0 30 -31v-1323q0 -123 -12 -208t-44.5 -161t-89.5 -135.5t-147 -117.5q-10 -7 -19 -7q-14 0 -24 17z" />
<glyph unicode="K" horiz-adv-x="1417" d="M225 31v1392q0 31 31 31h70q30 0 30 -31v-1392q0 -31 -30 -31h-70q-31 0 -31 31zM418 719q-13 14 -13 28t13 27l649 664q16 16 39 16h92q20 0 25 -12t-9 -25l-659 -661l680 -719q12 -10 12 -19q1 -3 -1 -6q-4 -12 -25 -12h-115q-24 0 -37 16z" />
<glyph unicode="L" horiz-adv-x="1165" d="M225 31v1392q0 31 31 31h70q30 0 30 -31v-1308h633q31 0 31 -33l-6 -53q-3 -29 -33 -29h-725q-31 0 -31 31z" />
<glyph unicode="M" horiz-adv-x="2054" d="M221 31l53 1392q3 31 33 31h109q26 0 35 -22l567 -1282l590 1282q9 22 34 22h109q30 0 33 -31l53 -1392q0 -31 -29 -31h-65q-30 0 -33 31l-41 993q-6 133 -6 264q-18 -51 -92 -215l-484 -1050q-10 -23 -34 -23h-78q-25 0 -35 23l-469 1056q-66 148 -84 207 q0 -133 -4 -262l-39 -993q-1 -17 -8.5 -24t-22.5 -7h-63q-29 0 -29 26v5z" />
<glyph unicode="N" horiz-adv-x="1642" d="M225 31v1392q0 31 31 31h86q22 0 37 -18l919 -1235q-4 49 -4 223v999q0 31 31 31h61q31 0 31 -31v-1392q0 -31 -31 -31h-79q-22 0 -37 18l-926 1248q4 -49 4 -242v-993q0 -31 -31 -31h-61q-31 0 -31 31z" />
<glyph unicode="O" horiz-adv-x="1824" d="M154 745q0 177 67.5 320.5t184.5 239.5q208 172 509 172q341 0 541 -197q215 -209 215 -537q0 -197 -77 -356t-216 -264q-192 -146 -489 -146q-135 0 -261.5 47.5t-217.5 125.5q-124 106 -190 262t-66 333zM293 766q0 -158 52.5 -291t152.5 -225q72 -67 176 -109.5 t213 -42.5h18q113 0 213 28.5t170 80.5q117 86 180.5 218.5t63.5 299.5q0 285 -180 465q-166 166 -453 166q-236 0 -407 -142q-91 -75 -145 -194.5t-54 -253.5z" />
<glyph unicode="P" d="M225 31v1392q0 31 31 31h195q137 0 234 -20.5t181 -73.5q90 -57 139.5 -146t49.5 -204q0 -128 -61 -232t-171 -164q-115 -62 -270 -62q-31 0 -64 3q-28 0 -28 31v39q0 27 11 33.5t56 5.5q9 0 19 -1q81 1 149 25q76 26 123.5 73.5t73 109t25.5 130.5q0 181 -146 271 q-59 37 -136.5 51t-191.5 14h-88v-1306q0 -31 -30 -31h-70q-31 0 -31 31z" />
<glyph unicode="Q" horiz-adv-x="1824" d="M154 745q0 177 67.5 320.5t184.5 239.5q208 172 509 172q341 0 541 -197q215 -209 215 -537q0 -139 -41.5 -265t-119.5 -227.5t-197 -170t-266 -90.5q191 -148 364 -219.5t385 -71.5q58 0 107 5t55 5q26 0 24 -28l-4 -41q-3 -27 -26 -33q-97 -25 -205 -25 q-127 0 -242 26.5t-226 83t-207 122.5t-218 166q-127 6 -243.5 51.5t-200.5 118.5q-124 106 -190 262t-66 333zM293 766q0 -158 52.5 -291t152.5 -225q72 -67 176 -109.5t213 -42.5h18q113 0 213 28.5t170 80.5q117 86 180.5 218.5t63.5 299.5q0 285 -180 465 q-166 166 -453 166q-236 0 -407 -142q-91 -75 -145 -194.5t-54 -253.5z" />
<glyph unicode="R" horiz-adv-x="1456" d="M225 31v1392q0 31 31 31h236q163 0 269.5 -33t180.5 -102q123 -117 123 -291q0 -278 -254 -397l186 -248q103 -137 187 -198.5t172 -82.5q24 -5 24 -30v-6l-8 -41q-2 -14 -11 -21q-8 -6 -19 -6h-3q-133 9 -228 72t-228 241l-207 277h-320v-557q0 -31 -30 -31h-70 q-31 0 -31 31zM356 702q127 -4 254 -4q148 0 240 105q76 85 76 213q0 61 -23 119.5t-67 99.5q-61 57 -143 79.5t-208 22.5h-129v-635z" />
<glyph unicode="S" horiz-adv-x="1179" d="M135 141q-2 29 23 29q6 0 53.5 -16.5t130 -33t172.5 -16.5q74 0 134 16.5t98.5 43t65 62.5t37.5 73t11 76q0 87 -53 157t-201 138l-125 57q-165 76 -234 167t-69 216q0 154 125 259.5t346 105.5q147 0 283 -43q27 -9 24 -35l-6 -62q-2 -26 -20 -26q-8 0 -47.5 11.5 t-104 22.5t-133.5 11q-162 0 -245 -67t-83 -169q0 -84 53 -149.5t199 -130.5l125 -56q169 -74 240.5 -172.5t71.5 -224.5q0 -58 -18 -115t-58 -109.5t-96.5 -92.5t-140 -64t-183.5 -24q-187 0 -348 61q-25 9 -25 35z" />
<glyph unicode="T" horiz-adv-x="1280" d="M88 1370v53q0 31 31 31h1050q15 0 23.5 -9t7.5 -24l-4 -53q-3 -29 -31 -29h-458v-1308q0 -31 -31 -31h-70q-31 0 -31 31v1308h-456q-31 0 -31 31z" />
<glyph unicode="U" horiz-adv-x="1562" d="M215 702v721q0 31 31 31h69q31 0 31 -31v-714q0 -173 19 -280t73 -181q113 -152 350 -152q227 0 338 146q55 73 77 171.5t22 262.5v747q0 31 30 31h62q31 0 31 -31v-729q0 -202 -23.5 -317.5t-93.5 -204.5q-68 -86 -182.5 -140.5t-270.5 -54.5q-164 0 -273.5 49 t-180.5 146q-62 85 -85.5 205t-23.5 325z" />
<glyph unicode="V" horiz-adv-x="1359" d="M76 1444q6 10 24 10h76q26 0 35 -24l481 -1299l463 1299q9 24 35 24h72q26 0 26 -21q0 -6 -2 -14l-514 -1392q-9 -25 -35 -25l-96 -4q-25 0 -37 25l-528 1396q-4 8 -4 14q1 6 4 11z" />
<glyph unicode="W" horiz-adv-x="2101" d="M74 1419q-3 7 -3 13q-1 7 3 12q6 10 24 10h78q26 0 35 -24l461 -1291l313 938l-125 342q-6 15 1 25t24 10h76q25 0 34 -24l461 -1291l442 1291q9 24 35 24h70q17 0 24 -10q4 -5 4 -12q0 -6 -3 -13l-496 -1392q-9 -25 -35 -25l-94 -4q-26 0 -35 25l-321 884l-304 -880 q-9 -25 -34 -25l-93 -4q-25 0 -34 25z" />
<glyph unicode="X" horiz-adv-x="1439" d="M144 1443q5 11 24 11h90q24 0 39 -18l420 -607l399 605q11 20 37 20h74q19 0 25 -11t-5 -26l-454 -682l497 -698q8 -10 8 -19q0 -4 -2 -7q-5 -11 -24 -11h-88q-24 0 -39 18l-436 619l-404 -617q-11 -20 -37 -20h-78q-19 0 -25 11t5 26l463 692l-483 688q-8 10 -8 19 q0 4 2 7z" />
<glyph unicode="Y" horiz-adv-x="1298" d="M61 1443q6 11 25 11h88q25 0 39 -20l453 -662l436 662q11 20 37 20h73q19 0 25 -11q2 -4 2 -9q0 -8 -6 -17l-510 -764v-622q0 -31 -31 -31h-69q-31 0 -31 31v620l-526 766q-7 10 -7 18q0 4 2 8z" />
<glyph unicode="Z" horiz-adv-x="1331" d="M123 31v63q0 19 12 37l815 1206h-792q-31 0 -31 31v55q0 31 31 31h932q30 0 30 -31v-47q0 -19 -12 -37l-827 -1218h884q29 0 29 -28v-5l-6 -59q-3 -29 -31 -29h-1003q-31 0 -31 31z" />
<glyph unicode="[" horiz-adv-x="718" d="M205 -600v2300q0 20 20 20h412q20 0 20 -20l-2 -47q-3 -21 -22 -21h-305v-2164h309q9 0 14 -6t4 -15l-2 -47q0 -21 -20 -21h-408q-20 0 -20 21z" />
<glyph unicode="\" horiz-adv-x="944" d="M8 1706q-8 19 10 25l72 26q19 6 25 -12l821 -2196q6 -19 -10 -24l-72 -27q-19 -6 -25 13z" />
<glyph unicode="]" horiz-adv-x="718" d="M61 -600l2 47q3 21 23 21h305v2164h-309q-9 0 -15 6t-6 15l2 47q3 20 23 20h408q20 0 20 -20v-2300q0 -21 -20 -21h-412q-9 0 -15 6t-6 15z" />
<glyph unicode="^" horiz-adv-x="1019" d="M102 521q-5 7 0 18l349 747q6 14 22 14h76q16 0 22 -14l347 -747q5 -11 0 -18t-17 -7h-84q-17 0 -22 16l-287 639l-285 -639q-5 -16 -22 -16h-82q-12 0 -17 7z" />
<glyph unicode="_" horiz-adv-x="1024" d="M0 -102q0 20 20 20h984q20 0 20 -20v-72q0 -21 -20 -21h-984q-20 0 -20 21v72z" />
<glyph unicode="`" horiz-adv-x="657" d="M106 1505l21 80q7 27 29 8l385 -293q14 -8 10 -26l-19 -60q-7 -23 -26 -10l-389 275q-14 9 -11 26z" />
<glyph unicode="a" horiz-adv-x="1052" d="M102 240q0 49 14.5 92.5t56 88.5t107 78t175.5 55t254 24v43q0 143 -25 196q-53 115 -219 115q-70 0 -135.5 -18t-104.5 -36t-45 -18q-17 0 -20 25l-4 37q-2 18 5 30t29 23q125 67 283 67q234 0 315 -151q26 -47 33.5 -104t7.5 -152v-416q0 -83 30 -112t102 -29 q23 0 31 -8q7 -7 7 -19v-6l-2 -25q-3 -26 -28 -32q-38 -6 -74 -6q-70 0 -113.5 33t-54.5 89q-130 -127 -315 -127q-135 0 -222.5 73.5t-87.5 189.5zM227 250q0 -72 55.5 -119t149.5 -47q155 0 277 113v276h-30q-89 0 -161 -10q-84 -12 -138 -33t-89 -51t-49.5 -61.5 t-14.5 -67.5z" />
<glyph unicode="b" horiz-adv-x="1179" d="M164 70q10 68 10 172v1294q0 28 29 31l61 6h5q28 0 28 -29v-522q0 -39 -1.5 -71.5t-3.5 -44.5l-1 -13q59 75 143 112t178 37q90 0 168.5 -32.5t138 -94t94 -159.5t34.5 -221q0 -259 -144.5 -409.5t-394.5 -150.5q-162 0 -301 48q-30 11 -38 19q-6 6 -6 18q0 5 1 10z M291 121q105 -39 227 -39q185 0 292.5 112.5t107.5 323.5q0 105 -27.5 187.5t-74 130.5t-101.5 72t-115 24q-172 0 -303 -150v-516q0 -112 -6 -145z" />
<glyph unicode="c" horiz-adv-x="1050" d="M123 500q0 255 131.5 398.5t366.5 143.5q121 0 233 -41q23 -8 29 -17t4 -28l-4 -43q-3 -24 -23 -24q-4 0 -35 11.5t-89 22.5t-126 11q-167 0 -263.5 -105t-96.5 -307q0 -198 104 -315t277 -117q63 0 120 14t92.5 27.5t45.5 13.5q18 0 18 -24l-2 -43q0 -14 -7.5 -23.5 t-31.5 -19.5q-115 -53 -241 -53q-125 0 -223 41t-158 113t-90.5 164t-30.5 200z" />
<glyph unicode="d" horiz-adv-x="1169" d="M123 483q0 258 144.5 408.5t394.5 150.5q118 0 210 -30v524q0 28 29 31l62 6h5q27 0 27 -29v-1511q0 -28 -28 -31l-56 -6q-32 -3 -32 29v100q-122 -150 -322 -150q-90 0 -168 32.5t-138 94.5t-94 160t-34 221zM252 500q0 -105 27.5 -187.5t73.5 -130.5t101 -72t115 -24 q172 0 303 150v657q-96 43 -221 43q-185 0 -292 -112.5t-107 -323.5z" />
<glyph unicode="e" horiz-adv-x="1103" d="M113 528q0 235 126.5 375.5t333.5 140.5q178 0 287 -123q105 -119 105 -332v-16q-3 -30 -33 -30h-696v-14q0 -205 110 -321q114 -120 309 -120q77 0 144 16t104.5 32t44.5 16q21 0 21 -31l-2 -35q0 -26 -23 -37q-132 -66 -299 -69h-16q-233 0 -372 143q-144 148 -144 405 zM242 641h594q0 142 -79 224.5t-206 82.5q-120 0 -208.5 -82.5t-100.5 -224.5z" />
<glyph unicode="f" horiz-adv-x="677" d="M41 928v26q0 28 29 31l135 14v76q0 145 18 230q29 139 127 208.5t234 69.5q89 0 153 -18q25 -5 25 -31v-6l-4 -39q-3 -29 -27 -29q-2 0 -21.5 4t-52.5 8.5t-69 4.5q-114 0 -179.5 -56t-76.5 -190q-4 -50 -4 -111v-121h262q15 0 23.5 -8.5t7.5 -23.5l-5 -41 q-3 -29 -30 -29h-258v-866q0 -31 -31 -31h-61q-31 0 -31 31v866h-133q-31 0 -31 31z" />
<glyph unicode="g" horiz-adv-x="1079" d="M47 -270q0 97 65 171t201 109q-73 51 -73 140q0 79 71 141q-89 46 -139.5 136t-50.5 218q0 166 102.5 282.5t268.5 116.5q126 0 221 -65h293q15 0 23 -9t7 -24l-4 -41q-3 -26 -31 -26h-192q61 -99 61 -236q0 -165 -102.5 -280t-269.5 -115q-62 0 -111 14q-35 -44 -35 -88 q0 -53 53 -84.5t156 -32.5l111 -2q185 -3 268 -75q68 -59 68 -164q0 -47 -21 -97.5t-66 -99.5t-108 -88.5t-154 -63.5t-196 -24q-103 0 -186 26.5t-131.5 69.5t-73.5 92t-25 99zM166 -258q0 -79 83 -139t234 -60q93 0 171.5 24.5t128 63.5t77 85t27.5 91q0 55 -39 91 q-52 49 -203 51l-110 2q-56 0 -117 14q-132 -30 -192 -90.5t-60 -132.5zM244 643q0 -79 22 -138.5t59 -93.5t80 -50.5t91 -16.5q121 0 186.5 81.5t65.5 219.5q0 79 -22.5 139.5t-59.5 95t-80.5 51.5t-91.5 17q-120 0 -185 -83t-65 -222z" />
<glyph unicode="h" horiz-adv-x="1134" d="M174 31v1505q0 28 29 31l61 6h5q28 0 28 -29v-495q0 -89 -6 -142q127 135 309 135q115 0 198 -47.5t124 -136.5q43 -90 43 -289v-538q0 -31 -31 -31h-62q-30 0 -30 31v512q0 47 -4 121q-6 128 -70.5 199t-189.5 71q-72 0 -146 -33.5t-135 -103.5v-766q0 -31 -31 -31h-61 q-31 0 -31 31z" />
<glyph unicode="i" horiz-adv-x="471" d="M139 1372q0 43 29 68.5t70 25.5t67.5 -26t26.5 -72q0 -43 -29 -68.5t-70 -25.5t-67.5 26t-26.5 72zM174 31v956q0 28 29 31l61 6h5q28 0 28 -29v-964q0 -31 -31 -31h-61q-31 0 -31 31z" />
<glyph unicode="j" horiz-adv-x="471" d="M-39 -397q96 104 138 172.5t58.5 151t16.5 229.5v831q0 28 29 31l61 6q33 3 33 -29v-852q0 -100 -9.5 -174.5t-26 -131t-50.5 -110t-72 -96t-102 -104.5q-11 -11 -21.5 -11t-21.5 11l-33 33q-10 10 -10 21t10 22zM139 1372q0 43 29 68.5t70 25.5t67.5 -26t26.5 -72 q0 -43 -29 -68.5t-70 -25.5t-67.5 26t-26.5 72z" />
<glyph unicode="k" horiz-adv-x="1073" d="M174 31v1505q0 28 29 31l61 6h5q28 0 28 -29v-1513q0 -31 -31 -31h-61q-31 0 -31 31zM362 512q-9 11 -9 21q0 12 12 22l423 453q13 16 37 16h80q21 0 25 -12t-10 -27l-424 -444l450 -504q10 -10 10 -19q0 -3 -1 -6q-5 -12 -25 -12h-90q-24 0 -37 16z" />
<glyph unicode="l" horiz-adv-x="471" d="M174 31v1505q0 28 29 31l61 6h5q28 0 28 -29v-1513q0 -31 -31 -31h-61q-31 0 -31 31z" />
<glyph unicode="m" horiz-adv-x="1789" d="M174 31v958q0 30 29 33l53 6q33 0 33 -31l2 -90q127 135 309 135q211 0 303 -165q135 165 352 165q115 0 198 -47.5t124 -136.5q43 -90 43 -289v-538q0 -31 -31 -31h-61q-31 0 -31 31v512q0 47 -4 121q-6 128 -70.5 199t-189.5 71q-75 0 -153 -36t-138 -116 q16 -68 16 -182v-569q0 -31 -30 -31h-60q-30 0 -30 31v536q0 60 -7 131q-10 105 -73 170.5t-180 65.5q-72 0 -146 -33.5t-135 -103.5v-766q0 -31 -31 -31h-61q-31 0 -31 31z" />
<glyph unicode="n" horiz-adv-x="1134" d="M174 31v958q0 30 29 33l53 6q33 0 33 -31l2 -90q127 135 309 135q115 0 198 -47.5t124 -136.5q43 -90 43 -289v-538q0 -31 -31 -31h-62q-30 0 -30 31v512q0 47 -4 121q-6 128 -70.5 199t-189.5 71q-72 0 -146 -33.5t-135 -103.5v-766q0 -31 -31 -31h-61q-31 0 -31 31z " />
<glyph unicode="o" horiz-adv-x="1204" d="M123 524q0 234 134.5 377t358.5 143q210 0 337.5 -140t127.5 -369q0 -252 -136.5 -403.5t-346.5 -151.5q-218 0 -346.5 152t-128.5 392zM248 532q0 -117 39.5 -217t120 -164.5t186.5 -64.5h18q152 0 247 125t95 317q0 176 -93 293t-259 117t-260 -112t-94 -294z" />
<glyph unicode="p" horiz-adv-x="1169" d="M174 -481v1470q0 28 29 31l57 6q33 3 33 -29v-102q59 74 142.5 110.5t176.5 36.5q90 0 168.5 -32.5t138 -94t94 -159.5t34.5 -221q0 -259 -144.5 -409.5t-394.5 -150.5q-116 0 -211 31v-487q0 -31 -31 -31h-61q-31 0 -31 31zM297 125q96 -43 221 -43q185 0 292.5 112.5 t107.5 323.5q0 105 -27.5 187.5t-74 130.5t-101.5 72t-115 24q-172 0 -303 -150v-657z" />
<glyph unicode="q" horiz-adv-x="1169" d="M123 483q0 262 146 410.5t407 148.5q121 0 291 -28q28 -3 28 -33v-1462q0 -31 -30 -31h-62q-31 0 -31 31v497q0 31 2 58.5t4 39.5l1 11q-122 -150 -322 -150q-89 0 -166.5 32t-137.5 93.5t-95 160t-35 222.5zM252 500q0 -106 28 -188.5t74.5 -130t101 -71.5t113.5 -24 q172 0 303 150v675q-108 25 -210 25q-194 0 -302 -111t-108 -325z" />
<glyph unicode="r" horiz-adv-x="743" d="M174 31v958q0 14 8 22.5t21 8.5l55 6q33 3 33 -29v-102q47 87 108.5 118t139.5 31q50 0 98 -10q31 -6 31 -33v-6l-6 -53q-3 -24 -27 -24q-6 0 -37.5 6t-69.5 6q-151 0 -231 -150v-749q0 -31 -31 -31h-61q-31 0 -31 31z" />
<glyph unicode="s" horiz-adv-x="925" d="M125 121q-2 31 20 31q7 0 42.5 -15.5t97.5 -31t135 -15.5q112 0 172.5 57t60.5 129q0 56 -39 104.5t-147 84.5l-107 35q-229 76 -229 268q0 43 18.5 88t56.5 88t109.5 70.5t165.5 27.5q135 0 226 -38q23 -9 30 -17.5t6 -25.5l-4 -39q-3 -27 -24 -27q-3 0 -79 20.5 t-155 20.5q-112 0 -168.5 -50t-56.5 -112q0 -53 39 -96t139 -76l107 -35q68 -22 116.5 -55t75 -72t38 -77.5t11.5 -79.5q0 -40 -12 -80.5t-40 -81t-68.5 -71t-103.5 -49.5t-140 -19q-129 0 -232 43q-38 15 -47.5 23.5t-11.5 27.5z" />
<glyph unicode="t" horiz-adv-x="747" d="M20 928v26q0 28 29 31l135 14l23 168q3 29 33 29h36q31 0 31 -31v-166h307q15 0 23.5 -8.5t7.5 -23.5l-4 -41q-3 -29 -31 -29h-303v-592q0 -64 17.5 -109.5t47.5 -68t62.5 -32t71.5 -9.5q48 0 102 14.5t56 14.5q22 0 22 -23v-6l-2 -39q0 -27 -22 -35q-78 -32 -164 -32 q-144 0 -229 73.5t-85 241.5v602h-133q-31 0 -31 31z" />
<glyph unicode="u" horiz-adv-x="1134" d="M170 453v536q0 28 29 31l61 6h5q28 0 28 -29v-518q0 -47 4 -121q6 -128 70.5 -199t189.5 -71q72 0 146 33.5t135 103.5v764q0 28 28 31l62 6h5q28 0 28 -29v-964q0 -28 -29 -31l-53 -6q-33 -3 -33 29l-2 90q-127 -135 -309 -135q-115 0 -198 47.5t-124 136.5 q-43 90 -43 289z" />
<glyph unicode="v" horiz-adv-x="1081" d="M76 1014q6 10 24 10h70q24 0 37 -25l285 -741q44 -115 49 -137q0 7 49 137l289 741q13 25 36 25h66q17 0 24 -10q4 -5 4 -12q0 -6 -3 -13l-392 -962q-12 -25 -34 -25l-82 -4q-28 0 -37 25l-385 966q-4 8 -4 14q1 6 4 11z" />
<glyph unicode="w" horiz-adv-x="1699" d="M74 989q-3 7 -3 13q-1 7 3 12q6 10 24 10h72q26 0 35 -25l233 -729l41 -129q0 19 43 129l252 729q9 25 35 25h84q26 0 35 -25l248 -718l47 -144q16 55 43 137l233 725q9 25 35 25h68q18 0 24 -10q3 -5 3 -12q0 -6 -3 -13l-336 -962q-9 -25 -35 -25l-73 -2h-5 q-21 0 -30 23l-299 860l-293 -856q-9 -25 -35 -25l-80 -2h-5q-20 0 -29 23z" />
<glyph unicode="x" horiz-adv-x="1042" d="M71 1013q5 11 25 11h80q22 0 37 -18l303 -412l287 412q15 18 39 18h63q19 0 24.5 -11t-5.5 -26l-336 -471l364 -479q8 -11 8 -19q0 -4 -1 -7q-5 -11 -25 -11h-82q-22 0 -37 18l-307 416l-283 -414q-14 -20 -39 -20h-65q-19 0 -24.5 11t5.5 26l336 475l-360 475 q-8 11 -8 19q0 4 1 7z" />
<glyph unicode="y" horiz-adv-x="1058" d="M41 989q-3 7 -3 13q0 7 4 12q7 10 24 10h75q26 0 35 -25q229 -664 369 -1001q109 197 203 520q61 213 106 477q3 29 33 29h65q29 0 29 -28v-5q-34 -212 -117 -491q-124 -410 -280 -647q-161 -243 -469 -381q-9 -4 -16 -4q-16 0 -25 20l-21 49q-12 28 17 41 q143 66 238.5 141t158.5 166q-179 420 -426 1104z" />
<glyph unicode="z" horiz-adv-x="1048" d="M143 31v39q0 20 19 45l567 805h-541q-30 0 -30 30v43q0 31 30 31h660q31 0 31 -31v-41q0 -18 -13 -37l-571 -809h588q27 0 27 -23q0 -4 -1 -9l-6 -45q-3 -29 -33 -29h-696q-31 0 -31 31z" />
<glyph unicode="{" horiz-adv-x="952" d="M102 541l2 51q0 17 23 20q178 13 243.5 99.5t65.5 294.5v333q0 116 25 192.5t80.5 119.5t134 58.5t194.5 10.5q21 0 21 -20l-2 -47q0 -21 -21 -21q-89 -2 -144.5 -14t-94.5 -43.5t-54.5 -83.5t-15.5 -135v-299q0 -79 -3.5 -134.5t-14 -110.5t-30 -92.5t-51 -70t-77 -52.5 t-107.5 -32q85 -12 140.5 -44.5t87 -92.5t43.5 -137.5t12 -192.5v-315q0 -93 11 -146.5t45.5 -91.5t93.5 -53t159 -18q21 0 21 -21v-47q0 -19 -21 -22q-102 -5 -177.5 8.5t-124 42.5t-78 77.5t-41 106.5t-11.5 135v316q0 69 -2 112.5t-8.5 93.5t-19.5 80t-35.5 61t-56 49 t-81 32t-110.5 20q-21 3 -21 23z" />
<glyph unicode="|" horiz-adv-x="432" d="M164 -492v2048q0 21 20 21h64q20 0 20 -21v-2048q0 -20 -20 -20h-64q-20 0 -20 20z" />
<glyph unicode="}" horiz-adv-x="952" d="M61 -604l2 47q0 20 21 20q175 3 242 60t67 217v334q0 95 5.5 158.5t22 124.5t47.5 99t82.5 66.5t125.5 42.5q-85 12 -140.5 44.5t-87 92.5t-43.5 137.5t-12 192.5v281q0 93 -11 146.5t-45.5 91.5t-93.5 53t-159 18q-21 0 -21 20v48q0 19 21 22q102 5 177.5 -8.5t124 -43 t78 -78t41 -106.5t11.5 -135v-280q0 -47 1 -80t3.5 -71.5t7.5 -64.5t13.5 -55t20.5 -48.5t29.5 -39.5t40 -33.5t51.5 -25.5t65.5 -19.5t80.5 -11.5q22 -4 19 -22l-2 -51q0 -18 -21 -21q-178 -15 -243.5 -100t-65.5 -293v-369q0 -116 -25 -192.5t-80.5 -119.5t-134 -58.5 t-194.5 -10.5q-21 0 -21 21z" />
<glyph unicode="~" horiz-adv-x="1112" d="M117 483q29 81 63.5 135.5t72 80.5t70 36t70.5 10q67 0 185 -45l38 -14q72 -27 111 -27q107 0 184 185q9 20 27 12l57 -22q19 -9 13 -29q-29 -81 -63.5 -135.5t-72 -80.5t-70.5 -36t-71 -10q-66 0 -184 45l-41 14q-76 27 -111 27q-104 0 -182 -185q-9 -21 -27 -12l-57 23 q-17 9 -12 28z" />
<glyph unicode="&#xa1;" horiz-adv-x="518" d="M164 981q0 41 28.5 68.5t69.5 27.5q39 0 65.5 -29.5t26.5 -72.5q0 -39 -27.5 -67.5t-70.5 -28.5q-41 0 -66.5 29.5t-25.5 72.5zM188 -373q7 546 17 934q2 53 7.5 67.5t27.5 14.5h43q21 0 26.5 -14t7.5 -68l17 -934q0 -20 -21 -20h-104q-21 0 -21 20z" />
<glyph unicode="&#xa2;" d="M184 500q0 233 110.5 374t311.5 164l6 150q0 20 21 20l55 -2q21 0 21 -20l-7 -144q126 -4 232 -49q17 -7 14 -24l-6 -66q-3 -18 -14 -18q-3 0 -32.5 10.5t-84 22.5t-113.5 16l-28 -844q76 -2 143 13.5t104 32t39 16.5q13 0 13 -19l-2 -63q0 -16 -15 -25 q-139 -66 -286 -63l-7 -150q0 -18 -20 -18l-55 2q-21 3 -21 22l6 154q-190 34 -287.5 173t-97.5 335zM311 522q0 -161 69.5 -270t192.5 -146l29 822q-137 -21 -214 -123.5t-77 -282.5z" />
<glyph unicode="&#xa3;" d="M72 68q0 16 16 24q130 66 187 143t57 189q0 80 -33 223h-176q-9 0 -15 6t-6 15v57q0 20 21 20h153q-24 123 -24 232q0 131 40 229.5t110.5 156t157 85t188.5 27.5q114 0 235 -33q19 -6 16 -25l-10 -74q-3 -18 -18 -18q-3 0 -34.5 7.5t-85.5 15.5t-112 8q-56 0 -105 -11 t-96 -38.5t-80.5 -70t-54 -109t-20.5 -150.5q0 -91 29 -232h444q21 0 21 -20v-57q0 -21 -21 -21h-424q31 -155 31 -227q0 -105 -39.5 -176t-118.5 -129q65 8 154 8h594q18 0 18 -21l-6 -82q-3 -20 -23 -20h-809q-61 0 -99 -3t-40 -3q-15 0 -18 18z" />
<glyph unicode="&#xa4;" horiz-adv-x="1040" d="M55 324q-16 16 0 28l154 152q-86 106 -86 248q0 139 86 245l-154 154q-15 15 0 29l35 34q14 14 29 0l153 -153q109 88 248 88t248 -88l154 153q14 14 28 0l35 -34q15 -14 0 -29l-154 -154q87 -112 87 -245q0 -136 -87 -248l154 -152q16 -12 0 -28l-35 -35q-14 -14 -28 0 l-154 151q-110 -86 -248 -86t-248 86l-153 -151q-15 -15 -29 0zM213 752q0 -128 90 -218t217 -90t217 90t90 218t-89.5 217.5t-217.5 89.5t-217.5 -89.5t-89.5 -217.5z" />
<glyph unicode="&#xa5;" d="M29.5 1447q3.5 7 15.5 7h113q16 0 24 -14l439 -668l419 668q8 14 25 14h98q12 0 16 -7t-3 -17l-461 -719h356q21 0 21 -21v-53q0 -21 -21 -21h-393v-225h393q21 0 21 -20v-54q0 -20 -21 -20h-393v-277q0 -20 -21 -20h-90q-20 0 -20 20v277h-391q-21 0 -21 20v54 q0 20 21 20h391v225h-391q-9 0 -15 6t-6 15v53q0 21 21 21h350l-473 719q-7 10 -3.5 17z" />
<glyph unicode="&#xa6;" horiz-adv-x="432" d="M164 367q0 20 20 20h64q20 0 20 -20v-859q0 -20 -20 -20h-64q-20 0 -20 20v859zM164 698v858q0 21 20 21h64q20 0 20 -21v-858q0 -20 -20 -20h-64q-20 0 -20 20z" />
<glyph unicode="&#xa7;" horiz-adv-x="1193" d="M88 977q0 126 78 233t205 174q75 40 172 62t178 22q121 0 240 -36q17 -7 14 -25l-6 -72q-2 -16 -17 -16q-8 0 -41.5 9.5t-88.5 19.5t-115 10q-79 0 -132 -27q-60 -31 -91 -81.5t-31 -106.5q0 -63 41.5 -136t179.5 -231l102 -117q187 -215 253.5 -339t66.5 -240 q0 -126 -78 -233.5t-205 -174.5q-75 -40 -172 -62t-178 -22q-118 0 -240 37q-17 7 -14 25l6 71q2 17 16 17q4 0 39 -10t92.5 -19.5t114.5 -9.5q79 0 131 27q60 31 91.5 81.5t31.5 106.5q0 63 -41.5 136t-179.5 231l-102 116q-186 215 -253 339.5t-67 240.5zM205 1004 q0 -98 57 -206t209 -282l102 -117q169 -192 224 -283.5t55 -164.5q0 -101 -72 -176q85 36 142 113.5t57 164.5q0 98 -57 206t-209 282l-103 116q-169 191 -223.5 283t-54.5 166q0 102 71 176q-85 -36 -141.5 -113.5t-56.5 -164.5z" />
<glyph unicode="&#xa8;" horiz-adv-x="780" d="M102 1384q0 42 25.5 68.5t67.5 26.5t65 -27t23 -70q0 -45 -26.5 -70.5t-66.5 -25.5q-39 0 -63.5 27.5t-24.5 70.5zM498 1384q0 42 25 68.5t67 26.5t65 -27t23 -70q0 -46 -26 -71t-66 -25q-39 0 -63.5 27.5t-24.5 70.5z" />
<glyph unicode="&#xa9;" horiz-adv-x="1828" d="M133 721q0 177 62 322t169.5 240.5t252 147.5t309.5 52q226 0 401.5 -94.5t272 -266.5t96.5 -395q0 -177 -61.5 -322t-169 -240.5t-252 -147.5t-310.5 -52q-225 0 -400.5 94.5t-272.5 266.5t-97 395zM250 743q0 -194 76 -346t227 -241.5t356 -89.5q303 0 487.5 171 t184.5 468q0 194 -76.5 346t-227.5 241.5t-355 89.5q-305 0 -488.5 -171t-183.5 -468zM496 731q0 186 122.5 292.5t303.5 106.5q121 0 223 -40q17 -7 14 -25l-2 -55q-2 -17 -14 -17q-9 0 -37 9.5t-78 19.5t-113 10q-132 0 -214.5 -73t-82.5 -218q0 -144 81 -233.5t235 -89.5 q59 0 117 16t94 31.5t39 15.5q16 0 14 -18l-6 -57q-3 -17 -16 -25q-130 -62 -250 -62q-172 0 -277 76q-72 53 -112.5 141t-40.5 195z" />
<glyph unicode="&#xaa;" horiz-adv-x="675" d="M59 989q0 30 9 57.5t34 56.5t64.5 49.5t106 34t153.5 13.5v33q0 77 -31 115t-114 38q-46 0 -89 -12t-69.5 -23.5t-30.5 -11.5q-12 0 -14 17l-4 41q-3 15 12 24q96 54 199 54q115 0 173 -56t58 -162v-237q0 -33 1.5 -48.5t9 -33t24 -25t45.5 -10.5q21 -4 18 -22l-2 -31 q-3 -20 -20 -23q-12 -2 -37 -2q-45 0 -74.5 21.5t-40.5 56.5q-77 -80 -190 -80q-85 0 -138 46.5t-53 119.5zM154 999q0 -40 29 -65t85 -25q83 0 158 72v139q-148 3 -210 -33t-62 -88z" />
<glyph unicode="&#xab;" horiz-adv-x="1081" d="M84 518q-12 14 0 29l383 436q13 15 29 2l53 -43q17 -14 2 -29l-330 -372l336 -389q15 -15 -2 -29l-55 -49q-18 -14 -31 2zM551 518q-12 14 0 29l342 389q13 15 29 2l45 -37q17 -14 2 -29l-295 -333l301 -349q15 -15 -2 -28l-47 -41q-18 -14 -31 2z" />
<glyph unicode="&#xac;" horiz-adv-x="1095" d="M61 686v66q0 20 21 20h932q20 0 20 -20v-330q0 -21 -20 -21h-58q-20 0 -20 21v244h-854q-21 0 -21 20z" />
<glyph unicode="&#xad;" horiz-adv-x="610" d="M41 532v62q0 20 20 20h488q20 0 20 -20v-62q0 -20 -20 -20h-488q-20 0 -20 20z" />
<glyph unicode="&#xae;" horiz-adv-x="1587" d="M133 840q0 120 34 223t95 179.5t144 131t184 82t213 27.5q289 0 470 -177t181 -462q0 -120 -34 -223t-95 -179.5t-144 -131t-184 -82t-213 -27.5q-289 0 -470 177t-181 462zM231 858q0 -164 64.5 -293t192 -204.5t300.5 -75.5q257 0 412.5 144t155.5 396q0 164 -64.5 293 t-192 205t-300.5 76q-257 0 -412.5 -144.5t-155.5 -396.5zM561 528v668q0 21 21 21h131q136 0 210 -53t74 -154q0 -61 -35.5 -113t-97.5 -78l137 -155q70 -76 111 -86q34 -8 25 -41q-5 -18 -14 -23.5t-33 -5.5q-55 0 -93.5 25t-101.5 102l-123 156h-113v-263q0 -20 -20 -20 h-57q-21 0 -21 20zM659 864h86q67 0 108.5 37.5t41.5 99.5q0 76 -50.5 110t-156.5 34h-29v-281z" />
<glyph unicode="&#xaf;" horiz-adv-x="696" d="M102 1354v61q0 21 21 21h450q21 0 21 -21v-61q0 -21 -21 -21h-450q-9 0 -15 6t-6 15z" />
<glyph unicode="&#xb0;" horiz-adv-x="839" d="M57 1112q0 160 108 261.5t263 101.5q151 0 250.5 -100.5t99.5 -262.5q0 -161 -108 -261.5t-262 -100.5q-153 0 -252 99.5t-99 262.5zM182 1114q0 -114 70 -185t166 -71t165.5 69t69.5 183t-70 185t-165 71q-97 0 -166.5 -69t-69.5 -183z" />
<glyph unicode="&#xb1;" horiz-adv-x="1095" d="M61 20v66q0 20 21 20h932q20 0 20 -20v-66q0 -20 -20 -20h-932q-21 0 -21 20zM61 770v66q0 20 21 20h412v373q0 20 20 20h68q20 0 20 -20v-373h412q20 0 20 -20v-66q0 -20 -20 -20h-412v-373q0 -21 -20 -21h-68q-20 0 -20 21v373h-412q-21 0 -21 20z" />
<glyph unicode="&#xb4;" horiz-adv-x="657" d="M106 1274q-3 17 11 26l387 293q19 16 26 -8l21 -80q4 -18 -10 -26l-389 -275q-20 -14 -27 10z" />
<glyph unicode="&#xb6;" horiz-adv-x="1390" d="M233 989q0 156 76 269.5t219 158.5q112 37 314 37h45q20 0 20 -20v-1246q0 -144 -20 -243.5t-47 -148t-70 -91.5q43 13 76 29.5t68 45t60 71t45.5 100.5t31 141t10.5 187v1155q0 20 20 20h82q21 0 21 -20v-1141q0 -378 -149.5 -547.5t-461.5 -169.5q-128 0 -247 39 q-14 6 -17 23l-8 69q-3 19 14 19q5 0 38.5 -10t83 -19.5t93.5 -9.5q254 0 254 487v389q-171 -4 -299 45q-116 43 -184 145t-68 236z" />
<glyph unicode="&#xb7;" horiz-adv-x="456" d="M133 610q0 40 27.5 68.5t70.5 28.5q41 0 67 -30t26 -73q0 -41 -28.5 -68.5t-70.5 -27.5q-39 0 -65.5 29.5t-26.5 72.5z" />
<glyph unicode="&#xb8;" horiz-adv-x="559" d="M102 -420q0 19 15 19q4 0 19 -5.5t40 -10.5t53 -5q54 0 84.5 26.5t30.5 65.5q0 53 -50 91t-142 53q-26 4 -33 10t-4 18l8 37q5 21 24 21q47 0 100 -15t100.5 -42t78.5 -69.5t31 -92.5q0 -83 -61 -139t-163 -56q-63 0 -114 22q-17 6 -17 23v49z" />
<glyph unicode="&#xba;" horiz-adv-x="776" d="M100 1157q0 143 85 230.5t227 87.5q134 0 214.5 -86t80.5 -226q0 -154 -86.5 -246t-221.5 -92q-139 0 -219 92t-80 240zM195 1161q0 -103 53.5 -176.5t148.5 -73.5h13q91 0 145.5 69.5t54.5 178.5q0 100 -53.5 165t-153.5 65t-154 -62t-54 -166z" />
<glyph unicode="&#xbb;" horiz-adv-x="1081" d="M106 868q-15 15 3 29l47 41q17 14 30 -2l344 -395q12 -15 0 -29l-342 -389q-12 -15 -28 -2l-45 37q-17 13 -2 28l295 334zM524 907q-15 15 2 29l56 49q17 14 30 -2l385 -442q12 -15 0 -29l-383 -436q-12 -15 -28 -2l-54 43q-17 13 -2 28l330 373z" />
<glyph unicode="&#xbc;" horiz-adv-x="1720" d="M92 1438q-3 32 29 35l215 22h55q31 0 31 -31v-819q0 -31 -31 -31h-37q-30 0 -30 31v758l-197 -17q-30 -3 -33 29zM397 23l709 1515q13 29 41 16l33 -16q29 -13 16 -41l-707 -1517q-13 -27 -40 -15l-35 17q-29 13 -17 41zM911 258v29q0 17 13 37l393 538q16 19 37 19h53 q31 0 31 -31v-535h108q32 0 29 -32l-2 -27q-3 -29 -31 -29h-104v-196q0 -31 -31 -31h-37q-31 0 -31 31v196h-397q-31 0 -31 31zM1026 315h313v295l4 152z" />
<glyph unicode="&#xbd;" horiz-adv-x="1720" d="M92 1438q-3 32 29 35l215 22h55q31 0 31 -31v-819q0 -31 -31 -31h-37q-30 0 -30 31v758l-197 -17q-30 -3 -33 29zM346 23l709 1515q13 29 41 16l32 -16q29 -13 17 -41l-707 -1517q-14 -27 -41 -15l-35 17q-29 13 -16 41zM1030 31v26q0 22 14 39l156 164 q139 149 190.5 230.5t51.5 152.5q0 76 -50 123t-135 47q-51 0 -97.5 -15.5t-73.5 -30.5t-33 -15q-18 0 -21 24l-2 25q-2 18 5 27.5t30 21.5q93 51 203 51q121 0 199.5 -71t78.5 -179q0 -92 -59.5 -192.5t-218.5 -259.5l-107 -107h416q32 0 29 -33l-2 -30q-3 -29 -33 -29 h-510q-31 0 -31 31z" />
<glyph unicode="&#xbe;" horiz-adv-x="1720" d="M102 700v31q0 27 17 27q7 0 41 -18.5t88 -37t112 -18.5q94 0 144.5 42.5t50.5 104.5q0 146 -266 189q-31 3 -31 33v26q0 30 31 33q138 24 192 72t54 104q0 59 -44.5 99t-132.5 40q-49 0 -94 -15.5t-73.5 -30.5t-36.5 -15q-19 0 -21 23l-2 24q-3 26 16 39q106 64 224 64 q125 0 195.5 -63.5t70.5 -156.5q0 -81 -53.5 -141.5t-165.5 -83.5q127 -28 184 -93.5t57 -141.5q0 -95 -76 -168.5t-223 -73.5q-121 0 -237 70q-21 12 -21 36zM473 23l709 1515q13 29 41 16l32 -16q29 -13 17 -41l-707 -1517q-14 -27 -41 -15l-35 17q-29 13 -16 41zM944 258 v29q0 19 12 37l394 538q16 19 36 19h54q30 0 30 -31v-535h109q32 0 29 -32l-2 -27q-3 -29 -31 -29h-105v-196q0 -31 -30 -31h-37q-31 0 -31 31v196h-397q-31 0 -31 31zM1059 315h313v295l4 152z" />
<glyph unicode="&#xbf;" horiz-adv-x="849" d="M113 -117q0 88 44.5 156.5t143.5 144.5l47 37q80 63 107.5 110.5t27.5 102.5q0 35 -13.5 73t-27.5 64.5t-14 34.5q0 9 14 15l58 20q17 7 39 -23q32 -43 52.5 -99.5t20.5 -102.5q0 -68 -40 -136t-138 -145l-47 -37q-81 -63 -112 -111.5t-31 -107.5q0 -80 69.5 -136 t186.5 -56q61 0 135 20.5t76 20.5q12 0 14 -21l8 -57q3 -21 -35 -35q-102 -39 -217 -39q-167 0 -267.5 90t-100.5 217zM401 971q0 41 28.5 68.5t70.5 27.5q39 0 65.5 -29.5t26.5 -72.5q0 -40 -27.5 -68.5t-70.5 -28.5q-41 0 -67 30t-26 73z" />
<glyph unicode="&#xc0;" horiz-adv-x="1470" d="M127 35l510 1392q9 25 35 25l86 4q25 0 37 -24l542 -1397q7 -15 0.5 -25t-24.5 -10h-76q-25 0 -37 25l-166 434h-622l-154 -434q-9 -25 -35 -25h-71q-17 0 -24 10t-1 25zM451 571h540l-217 570l-63 174q0 -1 -5.5 -17.5l-20 -60t-34.5 -98.5zM469 1839l8 80q3 26 25 14 l409 -223q16 -10 13 -24l-11 -70q-4 -25 -26 -12l-406 206q-15 9 -12 29z" />
<glyph unicode="&#xc1;" horiz-adv-x="1470" d="M127 35l510 1392q9 25 35 25l86 4q25 0 37 -24l542 -1397q7 -15 0.5 -25t-24.5 -10h-76q-25 0 -37 25l-166 434h-622l-154 -434q-9 -25 -35 -25h-71q-17 0 -24 10t-1 25zM451 571h540l-217 570l-63 174q0 -1 -5.5 -17.5l-20 -60t-34.5 -98.5zM526 1686q-3 14 13 24 l409 223q22 12 25 -14l8 -84q3 -16 -14 -25l-404 -206q-22 -13 -26 12z" />
<glyph unicode="&#xc2;" horiz-adv-x="1470" d="M127 35l510 1392q9 25 35 25l86 4q25 0 37 -24l542 -1397q7 -15 0.5 -25t-24.5 -10h-76q-25 0 -37 25l-166 434h-622l-154 -434q-9 -25 -35 -25h-71q-17 0 -24 10t-1 25zM371 1640q-13 17 2 29l350 268q15 9 29 -2l325 -262q17 -14 0 -28l-59 -54q-14 -12 -29 0l-264 215 l-279 -215q-16 -12 -30 2zM451 571h540l-217 570l-63 174q0 -1 -5.5 -17.5l-20 -60t-34.5 -98.5z" />
<glyph unicode="&#xc3;" horiz-adv-x="1470" d="M127 35l510 1392q9 25 35 25l86 4q25 0 37 -24l542 -1397q7 -15 0.5 -25t-24.5 -10h-76q-25 0 -37 25l-166 434h-622l-154 -434q-9 -25 -35 -25h-71q-17 0 -24 10t-1 25zM381 1657q43 115 99.5 158t125.5 43q43 0 137 -35l33 -13q54 -20 82 -20q14 0 24.5 2.5t30 12.5 t40.5 37.5t42 70.5q9 18 27 12l45 -16q21 -6 12 -27q-43 -115 -99.5 -158t-125.5 -43q-43 0 -137 35l-33 13q-54 20 -82 20q-14 0 -24.5 -2.5t-30 -12.5t-40.5 -37.5t-42 -70.5q-9 -18 -27 -12l-45 16q-21 6 -12 27zM451 571h540l-217 570l-63 174q0 -1 -5.5 -17.5l-20 -60 t-34.5 -98.5z" />
<glyph unicode="&#xc4;" horiz-adv-x="1470" d="M127 35l510 1392q9 25 35 25l86 4q25 0 37 -24l542 -1397q7 -15 0.5 -25t-24.5 -10h-76q-25 0 -37 25l-166 434h-622l-154 -434q-9 -25 -35 -25h-71q-17 0 -24 10t-1 25zM428 1751q0 39 25 64.5t67 25.5q41 0 64.5 -26t23.5 -66q0 -43 -26.5 -69.5t-65.5 -26.5 t-63.5 28.5t-24.5 69.5zM451 571h540l-217 570l-63 174q0 -1 -5.5 -17.5l-20 -60t-34.5 -98.5zM842 1751q0 39 25 64.5t67 25.5q41 0 64.5 -26t23.5 -66q0 -43 -26.5 -69.5t-65.5 -26.5t-63.5 28.5t-24.5 69.5z" />
<glyph unicode="&#xc5;" horiz-adv-x="1470" d="M127 35l510 1392q9 25 35 25l86 4q25 0 37 -24l542 -1397q7 -15 0.5 -25t-24.5 -10h-76q-25 0 -37 25l-166 434h-622l-154 -434q-9 -25 -35 -25h-71q-17 0 -24 10t-1 25zM451 571h540l-217 570l-63 174q0 -1 -5.5 -17.5l-20 -60t-34.5 -98.5zM496 1733q0 103 66 168 t171 65q97 0 159 -62t62 -165q0 -102 -66 -167t-171 -65q-97 0 -159 62.5t-62 163.5zM604 1741q0 -60 33 -103t84 -43q55 0 89 35.5t34 100.5q0 61 -32.5 103t-84.5 42q-54 0 -88.5 -35.5t-34.5 -99.5z" />
<glyph unicode="&#xc6;" horiz-adv-x="1941" d="M19.5 11q-5.5 11 3.5 26l849 1397q11 20 37 20h752q31 0 31 -31v-53q0 -31 -31 -31h-590v-542h543q31 0 31 -31v-49q0 -31 -31 -31h-543v-571h633q31 0 31 -33l-6 -53q-3 -29 -33 -29h-725q-31 0 -31 31v428h-520l-262 -439q-11 -20 -37 -20h-78q-18 0 -23.5 11zM487 571 h453v770q-35 -74 -106 -192z" />
<glyph unicode="&#xc7;" horiz-adv-x="1652" d="M154 721q0 212 78 366.5t204 245.5q198 142 502 142q231 0 442 -84q26 -10 23 -37l-6 -62q-2 -24 -25 -24q-8 0 -66.5 21.5t-160.5 43t-215 21.5q-267 0 -422 -123q-217 -171 -217 -504q0 -102 26.5 -195t81.5 -172t133 -137t186 -90.5t236 -32.5q96 0 188.5 17.5t148 38 t97.5 38t48 17.5q21 0 18 -29l-6 -61q-3 -27 -25 -35q-229 -106 -481 -106q-314 0 -508 145q-130 98 -205 255t-75 341zM639 -406q0 21 14 21q1 0 38 -12.5t77 -12.5q39 0 64.5 21.5t25.5 56.5q0 44 -46 80.5t-134 50.5q-22 3 -29.5 9.5t-3.5 21.5l14 53q5 19 31 19 q39 0 86.5 -13t94.5 -38t78.5 -69.5t31.5 -100.5q0 -78 -59 -136.5t-154 -58.5q-59 0 -115 27q-14 8 -14 24v57z" />
<glyph unicode="&#xc8;" horiz-adv-x="1226" d="M225 31v1392q0 31 31 31h690q31 0 31 -31v-53q0 -31 -31 -31h-590v-542h543q31 0 31 -31v-49q0 -31 -31 -31h-543v-571h633q31 0 31 -33l-6 -53q-3 -29 -33 -29h-725q-31 0 -31 31zM379 1839l8 80q3 26 25 14l409 -223q16 -10 13 -24l-11 -70q-4 -25 -26 -12l-406 206 q-15 9 -12 29z" />
<glyph unicode="&#xc9;" horiz-adv-x="1226" d="M225 31v1392q0 31 31 31h690q31 0 31 -31v-53q0 -31 -31 -31h-590v-542h543q31 0 31 -31v-49q0 -31 -31 -31h-543v-571h633q31 0 31 -33l-6 -53q-3 -29 -33 -29h-725q-31 0 -31 31zM395 1686q-3 14 13 24l409 223q22 12 25 -14l8 -84q3 -16 -14 -25l-404 -206 q-22 -13 -26 12z" />
<glyph unicode="&#xca;" horiz-adv-x="1226" d="M225 31v1392q0 31 31 31h690q31 0 31 -31v-53q0 -31 -31 -31h-590v-542h543q31 0 31 -31v-49q0 -31 -31 -31h-543v-571h633q31 0 31 -33l-6 -53q-3 -29 -33 -29h-725q-31 0 -31 31zM260 1640q-13 17 2 29l350 268q15 9 29 -2l326 -262q17 -14 0 -28l-60 -54 q-14 -11 -28 0l-265 215l-278 -215q-16 -13 -31 2z" />
<glyph unicode="&#xcb;" horiz-adv-x="1226" d="M225 31v1392q0 31 31 31h690q31 0 31 -31v-53q0 -31 -31 -31h-590v-542h543q31 0 31 -31v-49q0 -31 -31 -31h-543v-571h633q31 0 31 -33l-6 -53q-3 -29 -33 -29h-725q-31 0 -31 31zM317 1751q0 39 25.5 64.5t67.5 25.5q41 0 64.5 -26t23.5 -66q0 -43 -26.5 -69.5 t-65.5 -26.5t-64 28.5t-25 69.5zM731 1751q0 39 25 64.5t67 25.5q41 0 64.5 -26t23.5 -66q0 -43 -26.5 -69.5t-65.5 -26.5t-63.5 28.5t-24.5 69.5z" />
<glyph unicode="&#xcc;" horiz-adv-x="581" d="M55 1839l8 80q3 26 25 14l410 -223q15 -9 12 -24l-10 -70q-4 -25 -27 -12l-405 206q-16 9 -13 29zM225 31v1392q0 31 31 31h70q30 0 30 -31v-1392q0 -31 -30 -31h-70q-31 0 -31 31z" />
<glyph unicode="&#xcd;" horiz-adv-x="581" d="M72 1686q-3 15 12 24l410 223q21 12 24 -14l8 -84q3 -16 -14 -25l-403 -206q-23 -13 -27 12zM225 31v1392q0 31 31 31h70q30 0 30 -31v-1392q0 -31 -30 -31h-70q-31 0 -31 31z" />
<glyph unicode="&#xce;" horiz-adv-x="581" d="M-63 1640q-13 17 2 29l350 268q15 9 28 -2l326 -262q7 -6 7 -14t-7 -14l-59 -54q-14 -12 -29 0l-264 215l-279 -215q-16 -12 -30 2zM225 31v1392q0 31 31 31h70q30 0 30 -31v-1392q0 -31 -30 -31h-70q-31 0 -31 31z" />
<glyph unicode="&#xcf;" horiz-adv-x="581" d="M-6 1751q0 39 25 64.5t67 25.5q41 0 64.5 -26t23.5 -66q0 -43 -26.5 -69.5t-65.5 -26.5t-63.5 28.5t-24.5 69.5zM225 31v1392q0 31 31 31h70q30 0 30 -31v-1392q0 -31 -30 -31h-70q-31 0 -31 31zM408 1751q0 39 25 64.5t67 25.5q41 0 64.5 -26t23.5 -66 q0 -43 -26.5 -69.5t-65.5 -26.5t-63.5 28.5t-24.5 69.5z" />
<glyph unicode="&#xd0;" horiz-adv-x="1687" d="M20 725v47q0 31 31 31h174v620q0 31 31 31q129 2 346 2q127 0 231 -11.5t208 -40t190 -83.5t149 -135q144 -183 144 -428q0 -268 -135 -457q-106 -148 -275 -226.5t-434 -78.5q-279 0 -424 4q-31 0 -31 31v663h-174q-31 0 -31 31zM356 117q123 -4 336 -4 q221 0 361.5 64.5t228.5 193.5q104 152 104 368q0 227 -120 373q-103 124 -258.5 175.5t-413.5 51.5q-156 0 -238 -2v-534h408q31 0 31 -31v-47q0 -31 -31 -31h-408v-577z" />
<glyph unicode="&#xd1;" horiz-adv-x="1642" d="M225 31v1392q0 31 31 31h86q22 0 37 -18l919 -1235q-4 49 -4 223v999q0 31 31 31h61q31 0 31 -31v-1392q0 -31 -31 -31h-79q-22 0 -37 18l-926 1248q4 -49 4 -242v-993q0 -31 -31 -31h-61q-31 0 -31 31zM485 1657q43 115 100 158t126 43q43 0 137 -35l33 -13 q54 -20 82 -20q14 0 24.5 2.5t30 12.5t40.5 37.5t42 70.5q9 18 26 12l45 -16q22 -6 13 -27q-43 -115 -100 -158t-126 -43q-43 0 -137 35l-33 13q-54 20 -81 20q-14 0 -24.5 -2.5t-30.5 -12.5t-41 -37.5t-42 -70.5q-9 -18 -26 -12l-45 16q-22 6 -13 27z" />
<glyph unicode="&#xd2;" horiz-adv-x="1824" d="M154 745q0 177 67.5 320.5t184.5 239.5q208 172 509 172q341 0 541 -197q215 -209 215 -537q0 -197 -77 -356t-216 -264q-192 -146 -489 -146q-135 0 -261.5 47.5t-217.5 125.5q-124 106 -190 262t-66 333zM293 766q0 -158 52.5 -291t152.5 -225q72 -67 176 -109.5 t213 -42.5h18q113 0 213 28.5t170 80.5q117 86 180.5 218.5t63.5 299.5q0 285 -180 465q-166 166 -453 166q-236 0 -407 -142q-91 -75 -145 -194.5t-54 -253.5zM637 1839l8 80q3 26 25 14l409 -223q16 -10 13 -24l-11 -70q-4 -25 -26 -12l-406 206q-15 9 -12 29z" />
<glyph unicode="&#xd3;" horiz-adv-x="1824" d="M154 745q0 177 67.5 320.5t184.5 239.5q208 172 509 172q341 0 541 -197q215 -209 215 -537q0 -197 -77 -356t-216 -264q-192 -146 -489 -146q-135 0 -261.5 47.5t-217.5 125.5q-124 106 -190 262t-66 333zM293 766q0 -158 52.5 -291t152.5 -225q72 -67 176 -109.5 t213 -42.5h18q113 0 213 28.5t170 80.5q117 86 180.5 218.5t63.5 299.5q0 285 -180 465q-166 166 -453 166q-236 0 -407 -142q-91 -75 -145 -194.5t-54 -253.5zM735 1686q-3 14 13 24l409 223q22 12 25 -14l8 -84q3 -16 -14 -25l-404 -206q-23 -13 -27 12z" />
<glyph unicode="&#xd4;" horiz-adv-x="1824" d="M154 745q0 177 67.5 320.5t184.5 239.5q208 172 509 172q341 0 541 -197q215 -209 215 -537q0 -197 -77 -356t-216 -264q-192 -146 -489 -146q-135 0 -261.5 47.5t-217.5 125.5q-124 106 -190 262t-66 333zM293 766q0 -158 52.5 -291t152.5 -225q72 -67 176 -109.5 t213 -42.5h18q113 0 213 28.5t170 80.5q117 86 180.5 218.5t63.5 299.5q0 285 -180 465q-166 166 -453 166q-236 0 -407 -142q-91 -75 -145 -194.5t-54 -253.5zM559 1640q-13 17 2 29l350 268q15 9 29 -2l326 -262q8 -6 8 -14t-8 -14l-60 -54q-14 -11 -28 0l-265 215 l-278 -215q-16 -13 -31 2z" />
<glyph unicode="&#xd5;" horiz-adv-x="1824" d="M154 745q0 177 67.5 320.5t184.5 239.5q208 172 509 172q341 0 541 -197q215 -209 215 -537q0 -197 -77 -356t-216 -264q-192 -146 -489 -146q-135 0 -261.5 47.5t-217.5 125.5q-124 106 -190 262t-66 333zM293 766q0 -158 52.5 -291t152.5 -225q72 -67 176 -109.5 t213 -42.5h18q113 0 213 28.5t170 80.5q117 86 180.5 218.5t63.5 299.5q0 285 -180 465q-166 166 -453 166q-236 0 -407 -142q-91 -75 -145 -194.5t-54 -253.5zM569 1657q43 115 100 158t126 43q43 0 137 -35l33 -13q54 -20 82 -20q14 0 24.5 2.5t30 12.5t40.5 37.5t42 70.5 q9 18 26 12l45 -16q22 -6 13 -27q-43 -115 -100 -158t-126 -43q-43 0 -137 35l-33 13q-54 20 -81 20q-14 0 -24.5 -2.5t-30.5 -12.5t-41 -37.5t-42 -70.5q-9 -18 -26 -12l-45 16q-22 6 -13 27z" />
<glyph unicode="&#xd6;" horiz-adv-x="1824" d="M154 745q0 177 67.5 320.5t184.5 239.5q208 172 509 172q341 0 541 -197q215 -209 215 -537q0 -197 -77 -356t-216 -264q-192 -146 -489 -146q-135 0 -261.5 47.5t-217.5 125.5q-124 106 -190 262t-66 333zM293 766q0 -158 52.5 -291t152.5 -225q72 -67 176 -109.5 t213 -42.5h18q113 0 213 28.5t170 80.5q117 86 180.5 218.5t63.5 299.5q0 285 -180 465q-166 166 -453 166q-236 0 -407 -142q-91 -75 -145 -194.5t-54 -253.5zM616 1751q0 39 25.5 64.5t67.5 25.5q41 0 64.5 -26t23.5 -66q0 -43 -26.5 -69.5t-65.5 -26.5t-64 28.5t-25 69.5 zM1030 1751q0 39 25 64.5t67 25.5q41 0 64.5 -26t23.5 -66q0 -43 -26.5 -69.5t-65.5 -26.5t-63.5 28.5t-24.5 69.5z" />
<glyph unicode="&#xd7;" horiz-adv-x="1095" d="M119 250q-13 16 0 29l354 354l-354 354q-15 15 0 29l47 47q14 15 29 0l352 -356l354 356q15 15 29 0l47 -47q15 -14 0 -29l-356 -354l356 -354q16 -16 0 -29l-47 -45q-14 -15 -29 0l-354 354l-352 -354q-15 -15 -29 0z" />
<glyph unicode="&#xd8;" horiz-adv-x="1824" d="M154 745q0 177 67.5 320.5t184.5 239.5q208 172 509 172q222 0 381 -84l129 196q14 26 43 10l39 -26q27 -15 11 -43l-129 -193q139 -103 210.5 -258.5t71.5 -335.5q0 -197 -77 -356t-216 -264q-192 -146 -489 -146q-177 0 -340 80l-123 -186q-16 -25 -43 -10l-39 26 q-28 16 -10 43l121 183q-154 114 -227.5 280t-73.5 352zM293 766q0 -161 57.5 -304.5t175.5 -240.5l701 1063q-135 72 -328 72q-236 0 -407 -142q-91 -75 -145 -194.5t-54 -253.5zM618 162q122 -64 269 -64h18q113 0 213 28.5t170 80.5q117 86 180.5 218.5t63.5 299.5 q0 324 -217 502z" />
<glyph unicode="&#xd9;" horiz-adv-x="1562" d="M215 702v721q0 31 31 31h69q31 0 31 -31v-714q0 -173 19 -280t73 -181q113 -152 350 -152q227 0 338 146q55 73 77 171.5t22 262.5v747q0 31 30 31h62q31 0 31 -31v-729q0 -202 -23.5 -317.5t-93.5 -204.5q-68 -86 -182.5 -140.5t-270.5 -54.5q-164 0 -273.5 49 t-180.5 146q-62 85 -85.5 205t-23.5 325zM551 1839l8 80q3 26 25 14l409 -223q16 -10 13 -24l-11 -70q-4 -25 -26 -12l-406 206q-15 9 -12 29z" />
<glyph unicode="&#xda;" horiz-adv-x="1562" d="M215 702v721q0 31 31 31h69q31 0 31 -31v-714q0 -173 19 -280t73 -181q113 -152 350 -152q227 0 338 146q55 73 77 171.5t22 262.5v747q0 31 30 31h62q31 0 31 -31v-729q0 -202 -23.5 -317.5t-93.5 -204.5q-68 -86 -182.5 -140.5t-270.5 -54.5q-164 0 -273.5 49 t-180.5 146q-62 85 -85.5 205t-23.5 325zM567 1686q-3 14 13 24l409 223q22 12 25 -14l8 -84q3 -16 -14 -25l-404 -206q-22 -13 -26 12z" />
<glyph unicode="&#xdb;" horiz-adv-x="1562" d="M215 702v721q0 31 31 31h69q31 0 31 -31v-714q0 -173 19 -280t73 -181q113 -152 350 -152q227 0 338 146q55 73 77 171.5t22 262.5v747q0 31 30 31h62q31 0 31 -31v-729q0 -202 -23.5 -317.5t-93.5 -204.5q-68 -86 -182.5 -140.5t-270.5 -54.5q-164 0 -273.5 49 t-180.5 146q-62 85 -85.5 205t-23.5 325zM432 1640q-13 17 2 29l350 268q15 9 29 -2l326 -262q17 -14 0 -28l-60 -54q-14 -11 -28 0l-265 215l-278 -215q-16 -13 -31 2z" />
<glyph unicode="&#xdc;" horiz-adv-x="1562" d="M215 702v721q0 31 31 31h69q31 0 31 -31v-714q0 -173 19 -280t73 -181q113 -152 350 -152q227 0 338 146q55 73 77 171.5t22 262.5v747q0 31 30 31h62q31 0 31 -31v-729q0 -202 -23.5 -317.5t-93.5 -204.5q-68 -86 -182.5 -140.5t-270.5 -54.5q-164 0 -273.5 49 t-180.5 146q-62 85 -85.5 205t-23.5 325zM489 1751q0 39 25.5 64.5t67.5 25.5q41 0 64.5 -26t23.5 -66q0 -43 -26.5 -69.5t-65.5 -26.5t-64 28.5t-25 69.5zM903 1751q0 39 25 64.5t67 25.5q41 0 64.5 -26t23.5 -66q0 -43 -26.5 -69.5t-65.5 -26.5t-63.5 28.5t-24.5 69.5z " />
<glyph unicode="&#xdd;" horiz-adv-x="1298" d="M61 1443q6 11 25 11h88q25 0 39 -20l453 -662l436 662q11 20 37 20h73q19 0 25 -11t-4 -26l-510 -764v-622q0 -31 -31 -31h-69q-31 0 -31 31v620l-526 766q-11 15 -5 26zM512 1686q-3 15 12 24l410 223q21 12 24 -14l9 -84q3 -16 -15 -25l-403 -206q-23 -13 -27 12z" />
<glyph unicode="&#xde;" d="M225 31v1392q0 31 31 31h70q30 0 30 -31v-206h95q136 0 233.5 -21t181.5 -74q90 -57 139.5 -146t49.5 -204q0 -128 -61 -231.5t-171 -163.5q-140 -75 -334 -60q-28 3 -28 31v49q0 31 33 31q173 -9 274 55q70 45 110 118.5t40 162.5q0 180 -146 270q-60 38 -137.5 52 t-190.5 14h-88v-1069q0 -31 -30 -31h-70q-31 0 -31 31z" />
<glyph unicode="&#xdf;" horiz-adv-x="1363" d="M31 928v26q0 28 28 31l136 14v17q0 144 18 229q32 153 148.5 245.5t310.5 92.5q101 0 182 -27t130.5 -72t75 -99t25.5 -113q0 -61 -20 -112t-51.5 -86t-70 -65t-77 -56t-70 -52.5t-51.5 -60.5t-20 -74q0 -62 41 -104.5t147 -77.5l50 -17q130 -44 185.5 -120t55.5 -164 q0 -40 -12 -80.5t-40 -81t-68.5 -71t-103.5 -49.5t-140 -19q-142 0 -269 59q-22 8 -22 35l-2 49q-3 27 18 27q6 0 41.5 -15.5t98.5 -31t137 -15.5q112 0 172.5 57t60.5 129q0 56 -39 104.5t-147 84.5l-49 16q-123 41 -181.5 114.5t-58.5 164.5q0 55 19.5 100t51.5 76.5 t70 59.5t76 55t70 56t51.5 69.5t19.5 89.5q0 37 -15.5 71.5t-49 67t-95.5 52.5t-145 20q-305 0 -331 -306q-5 -63 -5 -110v-1030q0 -31 -30 -31h-62q-30 0 -30 31v866h-134q-30 0 -30 31z" />
<glyph unicode="&#xe0;" horiz-adv-x="1052" d="M102 240q0 49 14.5 92.5t56 88.5t107 78t175.5 55t254 24v43q0 143 -25 196q-53 115 -219 115q-70 0 -135.5 -18t-104.5 -36t-45 -18q-17 0 -20 25l-4 37q-2 18 5 30t29 23q125 67 283 67q234 0 315 -151q26 -47 33.5 -104t7.5 -152v-416q0 -83 30 -112t102 -29 q23 0 31.5 -8.5t6.5 -24.5l-2 -25q-3 -26 -28 -32q-38 -6 -74 -6q-70 0 -113.5 33t-54.5 89q-130 -127 -315 -127q-135 0 -222.5 73.5t-87.5 189.5zM172 1505l21 80q7 26 28 8l385 -293q14 -8 10 -26l-18 -60q-7 -24 -27 -10l-389 275q-14 8 -10 26zM227 250 q0 -72 55.5 -119t149.5 -47q155 0 277 113v276q-107 2 -191.5 -10t-138 -33t-88.5 -51t-49.5 -61.5t-14.5 -67.5z" />
<glyph unicode="&#xe1;" horiz-adv-x="1052" d="M102 240q0 49 14.5 92.5t56 88.5t107 78t175.5 55t254 24v43q0 143 -25 196q-53 115 -219 115q-70 0 -135.5 -18t-104.5 -36t-45 -18q-17 0 -20 25l-4 37q-2 18 5 30t29 23q125 67 283 67q234 0 315 -151q26 -47 33.5 -104t7.5 -152v-416q0 -83 30 -112t102 -29 q23 0 31.5 -8.5t6.5 -24.5l-2 -25q-3 -26 -28 -32q-38 -6 -74 -6q-70 0 -113.5 33t-54.5 89q-130 -127 -315 -127q-135 0 -222.5 73.5t-87.5 189.5zM227 250q0 -72 55.5 -119t149.5 -47q155 0 277 113v276q-107 2 -191.5 -10t-138 -33t-88.5 -51t-49.5 -61.5t-14.5 -67.5z M326 1274q-4 18 10 26l387 293q9 7 16.5 5t10.5 -13l20 -80q4 -18 -10 -26l-389 -275q-20 -14 -27 10z" />
<glyph unicode="&#xe2;" horiz-adv-x="1052" d="M102 240q0 49 14.5 92.5t56 88.5t107 78t175.5 55t254 24v43q0 143 -25 196q-53 115 -219 115q-70 0 -135.5 -18t-104.5 -36t-45 -18q-17 0 -20 25l-4 37q-2 18 5 30t29 23q125 67 283 67q234 0 315 -151q26 -47 33.5 -104t7.5 -152v-416q0 -83 30 -112t102 -29 q23 0 31.5 -8.5t6.5 -24.5l-2 -25q-3 -26 -28 -32q-38 -6 -74 -6q-70 0 -113.5 33t-54.5 89q-130 -127 -315 -127q-135 0 -222.5 73.5t-87.5 189.5zM138 1253.5q0 8.5 7 14.5l330 305q15 15 29 0l311 -305q17 -17 -2 -29l-57 -43q-14 -14 -29 2l-250 250l-260 -244 q-14 -14 -29 -2l-43 37q-7 6 -7 14.5zM227 250q0 -72 55.5 -119t149.5 -47q155 0 277 113v276q-107 2 -191.5 -10t-138 -33t-88.5 -51t-49.5 -61.5t-14.5 -67.5z" />
<glyph unicode="&#xe3;" horiz-adv-x="1052" d="M102 240q0 49 14.5 92.5t56 88.5t107 78t175.5 55t254 24v43q0 143 -25 196q-53 115 -219 115q-70 0 -135.5 -18t-104.5 -36t-45 -18q-17 0 -20 25l-4 37q-2 18 5 30t29 23q125 67 283 67q234 0 315 -151q26 -47 33.5 -104t7.5 -152v-416q0 -83 30 -112t102 -29 q23 0 31.5 -8.5t6.5 -24.5l-2 -25q-3 -26 -28 -32q-38 -6 -74 -6q-70 0 -113.5 33t-54.5 89q-130 -127 -315 -127q-135 0 -222.5 73.5t-87.5 189.5zM133 1253q30 80 69.5 127t75.5 61.5t80 14.5t138 -35l32 -12q54 -20 82 -20q15 0 25 2.5t30 12t41 37t42 70.5q9 19 26 13 l45 -17q21 -6 12 -26q-30 -80 -69.5 -127t-75.5 -61.5t-80 -14.5q-43 0 -137 35l-33 12q-56 21 -82 21q-14 0 -24.5 -2.5t-30 -12.5t-40.5 -37.5t-42 -70.5q-9 -19 -27 -13l-45 17q-21 6 -12 26zM227 250q0 -72 55.5 -119t149.5 -47q155 0 277 113v276q-107 2 -191.5 -10 t-138 -33t-88.5 -51t-49.5 -61.5t-14.5 -67.5z" />
<glyph unicode="&#xe4;" horiz-adv-x="1052" d="M102 240q0 49 14.5 92.5t56 88.5t107 78t175.5 55t254 24v43q0 143 -25 196q-53 115 -219 115q-70 0 -135.5 -18t-104.5 -36t-45 -18q-17 0 -20 25l-4 37q-2 18 5 30t29 23q125 67 283 67q234 0 315 -151q26 -47 33.5 -104t7.5 -152v-416q0 -83 30 -112t102 -29 q23 0 31.5 -8.5t6.5 -24.5l-2 -25q-3 -26 -28 -32q-38 -6 -74 -6q-70 0 -113.5 33t-54.5 89q-130 -127 -315 -127q-135 0 -222.5 73.5t-87.5 189.5zM195 1384q0 42 25 68.5t67 26.5t65 -27t23 -70q0 -46 -26 -71t-66 -25q-39 0 -63.5 27.5t-24.5 70.5zM227 250 q0 -72 55.5 -119t149.5 -47q155 0 277 113v276q-107 2 -191.5 -10t-138 -33t-88.5 -51t-49.5 -61.5t-14.5 -67.5zM590 1384q0 42 25 68.5t67 26.5t65 -27t23 -70q0 -46 -26 -71t-66 -25q-39 0 -63.5 27.5t-24.5 70.5z" />
<glyph unicode="&#xe5;" horiz-adv-x="1052" d="M102 240q0 49 14.5 92.5t56 88.5t107 78t175.5 55t254 24v43q0 143 -25 196q-53 115 -219 115q-70 0 -135.5 -18t-104.5 -36t-45 -18q-17 0 -20 25l-4 37q-2 18 5 30t29 23q125 67 283 67q234 0 315 -151q26 -47 33.5 -104t7.5 -152v-416q0 -83 30 -112t102 -29 q23 0 31.5 -8.5t6.5 -24.5l-2 -25q-3 -26 -28 -32q-38 -6 -74 -6q-70 0 -113.5 33t-54.5 89q-130 -127 -315 -127q-135 0 -222.5 73.5t-87.5 189.5zM227 250q0 -72 55.5 -119t149.5 -47q155 0 277 113v276q-107 2 -191.5 -10t-138 -33t-88.5 -51t-49.5 -61.5t-14.5 -67.5z M252 1386q0 104 65 170t170 66q100 0 163 -61t63 -162q0 -103 -65.5 -169.5t-170.5 -66.5q-100 0 -162.5 61t-62.5 162zM354 1399q0 -71 34 -113.5t93 -42.5t94 37.5t35 105.5q0 70 -34 113t-93 43t-94 -37.5t-35 -105.5z" />
<glyph unicode="&#xe6;" horiz-adv-x="1699" d="M102 240q0 49 14.5 92.5t56 88.5t107 78t175.5 55t254 24v43q0 143 -25 196q-53 115 -219 115q-70 0 -136 -18t-105 -36t-46 -18q-15 0 -18 25l-4 37q-2 18 5 30t29 23q125 67 283 67q255 0 328 -178q60 87 155 133.5t213 46.5q178 0 287 -122.5t105 -348.5 q0 -30 -33 -30h-697q-4 -214 111 -334.5t309 -120.5q77 0 143.5 16t104 32t45.5 16q21 0 21 -31l-2 -35q0 -26 -23 -37q-132 -66 -299 -69q-145 -1 -254.5 50t-173.5 142q-59 -85 -160.5 -140t-230.5 -55q-144 0 -232 73t-88 190zM227 250q0 -73 56.5 -119.5t158.5 -46.5 q90 0 177.5 47t140.5 129q-43 103 -49 213q-108 2 -192.5 -10t-138.5 -33t-89 -51t-49.5 -61.5t-14.5 -67.5zM838 641h594q0 142 -79 224.5t-206 82.5q-120 0 -208.5 -82.5t-100.5 -224.5z" />
<glyph unicode="&#xe7;" horiz-adv-x="1050" d="M123 500q0 255 131.5 398.5t366.5 143.5q121 0 233 -41q23 -8 29 -17t4 -28l-4 -43q-3 -24 -23 -24q-4 0 -35 11.5t-89 22.5t-126 11q-167 0 -263.5 -105t-96.5 -307q0 -198 104 -315t277 -117q63 0 120 14t92.5 27.5t45.5 13.5q18 0 18 -24l-2 -43q0 -14 -7.5 -23.5 t-31.5 -19.5q-115 -53 -241 -53q-125 0 -223 41t-158 113t-90.5 164t-30.5 200zM414 -420q0 19 14 19q4 0 19.5 -5.5t40.5 -10.5t53 -5q54 0 84 26.5t30 65.5q0 53 -50 91t-142 53q-26 4 -33 10t-4 18l8 37q5 21 25 21q64 0 133.5 -24.5t122.5 -77t53 -117.5 q0 -83 -60.5 -139t-162.5 -56q-64 0 -115 22q-16 5 -16 23v49z" />
<glyph unicode="&#xe8;" horiz-adv-x="1103" d="M113 528q0 235 126.5 375.5t333.5 140.5q178 0 287 -123t105 -348q-3 -30 -33 -30h-696q-4 -214 110.5 -334.5t308.5 -120.5q77 0 144 16t104.5 32t44.5 16q21 0 21 -31l-2 -35q0 -26 -23 -37q-132 -66 -299 -69q-244 -5 -388 143t-144 405zM242 641h594q0 142 -79 224.5 t-206 82.5q-120 0 -208.5 -82.5t-100.5 -224.5zM252 1505l20 80q7 27 29 8l385 -293q14 -8 10 -26l-18 -60q-7 -24 -27 -10l-389 275q-14 8 -10 26z" />
<glyph unicode="&#xe9;" horiz-adv-x="1103" d="M113 528q0 235 126.5 375.5t333.5 140.5q178 0 287 -123t105 -348q-3 -30 -33 -30h-696q-4 -214 110.5 -334.5t308.5 -120.5q77 0 144 16t104.5 32t44.5 16q21 0 21 -31l-2 -35q0 -26 -23 -37q-132 -66 -299 -69q-244 -5 -388 143t-144 405zM242 641h594q0 142 -79 224.5 t-206 82.5q-120 0 -208.5 -82.5t-100.5 -224.5zM406 1274q-4 18 10 26l387 293q19 16 26 -8l21 -80q4 -18 -10 -26l-389 -275q-20 -14 -27 10z" />
<glyph unicode="&#xea;" horiz-adv-x="1103" d="M113 528q0 235 126.5 375.5t333.5 140.5q178 0 287 -123t105 -348q-3 -30 -33 -30h-696q-4 -214 110.5 -334.5t308.5 -120.5q77 0 144 16t104.5 32t44.5 16q21 0 21 -31l-2 -35q0 -26 -23 -37q-132 -66 -299 -69q-244 -5 -388 143t-144 405zM218 1253.5q0 8.5 7 14.5 l330 305q15 15 29 0l311 -305q17 -17 -2 -29l-57 -43q-14 -14 -29 2l-250 250l-260 -244q-14 -14 -29 -2l-43 37q-7 6 -7 14.5zM242 641h594q0 142 -79 224.5t-206 82.5q-120 0 -208.5 -82.5t-100.5 -224.5z" />
<glyph unicode="&#xeb;" horiz-adv-x="1103" d="M113 528q0 235 126.5 375.5t333.5 140.5q178 0 287 -123t105 -348q-3 -30 -33 -30h-696q-4 -214 110.5 -334.5t308.5 -120.5q77 0 144 16t104.5 32t44.5 16q21 0 21 -31l-2 -35q0 -26 -23 -37q-132 -66 -299 -69q-244 -5 -388 143t-144 405zM242 641h594q0 142 -79 224.5 t-206 82.5q-120 0 -208.5 -82.5t-100.5 -224.5zM274 1384q0 42 25.5 68.5t67.5 26.5t65 -27t23 -70q0 -45 -26.5 -70.5t-66.5 -25.5q-39 0 -63.5 27.5t-24.5 70.5zM670 1384q0 42 25 68.5t67 26.5t65 -27t23 -70q0 -46 -26 -71t-66 -25q-39 0 -63.5 27.5t-24.5 70.5z" />
<glyph unicode="&#xec;" horiz-adv-x="471" d="M23 1556l26 56q8 15 19.5 16t23.5 -12l303 -350q17 -20 4 -43l-18 -37q-7 -15 -19 -16.5t-22 10.5l-311 336q-18 18 -6 40zM174 31v956q0 28 29 31l61 6q33 3 33 -29v-964q0 -31 -31 -31h-61q-31 0 -31 31z" />
<glyph unicode="&#xed;" horiz-adv-x="471" d="M72 1223q-13 23 4 43l305 352q10 12 22 10.5t19 -16.5l27 -56q12 -21 -7 -40l-311 -336q-10 -12 -22 -10.5t-19 16.5zM174 31v956q0 28 29 31l61 6q33 3 33 -29v-964q0 -31 -31 -31h-61q-31 0 -31 31z" />
<glyph unicode="&#xee;" horiz-adv-x="471" d="M-106 1253.5q0 8.5 8 14.5l329 305q15 15 29 0l311 -305q17 -17 -2 -29l-57 -43q-14 -14 -29 2l-250 250l-260 -244q-14 -14 -28 -2l-43 37q-8 6 -8 14.5zM174 31v956q0 28 29 31l61 6q33 3 33 -29v-964q0 -31 -31 -31h-61q-31 0 -31 31z" />
<glyph unicode="&#xef;" horiz-adv-x="471" d="M-51 1384q0 42 25 68.5t67 26.5t65 -27t23 -70q0 -46 -26 -71t-66 -25q-39 0 -63.5 27.5t-24.5 70.5zM174 31v956q0 28 29 31l61 6q33 3 33 -29v-964q0 -31 -31 -31h-61q-31 0 -31 31zM344 1384q0 42 25 68.5t67 26.5t65 -27t23 -70q0 -46 -26 -71t-66 -25 q-39 0 -63.5 27.5t-24.5 70.5z" />
<glyph unicode="&#xf0;" horiz-adv-x="1175" d="M123 418q0 152 61 264t164 170q136 76 322 76q121 0 217 -29q-48 246 -199 391l-252 -168q-25 -15 -43 6l-26 35q-18 24 8 43l229 152q-146 103 -368 121q-32 3 -29 34l8 46q3 29 33 26q266 -12 461 -155l163 108q25 15 43 -6l27 -35q18 -24 -8 -43l-143 -94 q251 -248 251 -692q0 -336 -139 -514.5t-373 -178.5q-113 0 -204 50t-147 152t-56 241zM252 434q0 -165 84.5 -256.5t208.5 -91.5q66 0 130.5 27t106.5 75q127 142 127 453q0 77 -6 141q-116 39 -233 39q-169 0 -269 -71q-70 -48 -109.5 -130.5t-39.5 -185.5z" />
<glyph unicode="&#xf1;" horiz-adv-x="1134" d="M174 31v958q0 30 29 33l53 6q33 0 33 -31l2 -90q127 135 309 135q115 0 198 -47.5t124 -136.5q43 -90 43 -289v-538q0 -31 -31 -31h-62q-30 0 -30 31v512q0 47 -4 121q-6 128 -70.5 199t-189.5 71q-72 0 -146 -33.5t-135 -103.5v-766q0 -31 -31 -31h-61q-31 0 -31 31z M221 1253q30 80 69.5 127t75.5 61.5t80 14.5t138 -35l32 -12q54 -20 82 -20q15 0 25 2.5t30 12t41 37t42 70.5q9 19 26 13l45 -17q22 -6 13 -26q-43 -115 -100.5 -159t-125.5 -44q-43 0 -137 35l-33 12q-56 21 -82 21q-14 0 -24.5 -2.5t-30 -12.5t-40.5 -37.5t-42 -70.5 q-9 -19 -26 -13l-46 17q-21 6 -12 26z" />
<glyph unicode="&#xf2;" horiz-adv-x="1204" d="M123 524q0 234 134.5 377t358.5 143q210 0 337.5 -140t127.5 -369q0 -252 -136.5 -403.5t-346.5 -151.5q-218 0 -346.5 152t-128.5 392zM248 532q0 -117 39.5 -217t120 -164.5t186.5 -64.5h18q152 0 247 125t95 317q0 176 -93 293t-259 117t-260 -112t-94 -294zM293 1505 l20 80q7 27 29 8l385 -293q14 -8 10 -26l-18 -60q-7 -24 -27 -10l-389 275q-14 8 -10 26z" />
<glyph unicode="&#xf3;" horiz-adv-x="1204" d="M123 524q0 234 134.5 377t358.5 143q210 0 337.5 -140t127.5 -369q0 -252 -136.5 -403.5t-346.5 -151.5q-218 0 -346.5 152t-128.5 392zM248 532q0 -117 39.5 -217t120 -164.5t186.5 -64.5h18q152 0 247 125t95 317q0 176 -93 293t-259 117t-260 -112t-94 -294zM446 1274 q-3 17 11 26l387 293q19 16 26 -8l21 -80q4 -18 -10 -26l-389 -275q-20 -14 -27 10z" />
<glyph unicode="&#xf4;" horiz-adv-x="1204" d="M123 524q0 234 134.5 377t358.5 143q210 0 337.5 -140t127.5 -369q0 -252 -136.5 -403.5t-346.5 -151.5q-218 0 -346.5 152t-128.5 392zM248 532q0 -117 39.5 -217t120 -164.5t186.5 -64.5h18q152 0 247 125t95 317q0 176 -93 293t-259 117t-260 -112t-94 -294z M258 1253.5q0 8.5 8 14.5l330 305q14 15 29 0l311 -305q17 -17 -2 -29l-57 -43q-13 -14 -29 2l-250 250l-260 -244q-14 -14 -29 -2l-43 37q-8 6 -8 14.5z" />
<glyph unicode="&#xf5;" horiz-adv-x="1204" d="M123 524q0 234 134.5 377t358.5 143q210 0 337.5 -140t127.5 -369q0 -252 -136.5 -403.5t-346.5 -151.5q-218 0 -346.5 152t-128.5 392zM248 532q0 -117 39.5 -217t120 -164.5t186.5 -64.5h18q152 0 247 125t95 317q0 176 -93 293t-259 117t-260 -112t-94 -294zM254 1253 q30 80 69.5 127t75.5 61.5t80 14.5q43 0 137 -35l33 -12q54 -20 82 -20q15 0 25 2.5t29.5 12t40.5 37t42 70.5q9 19 27 13l45 -17q21 -6 12 -26q-30 -80 -69.5 -127t-75.5 -61.5t-80 -14.5q-43 0 -137 35l-33 12q-56 21 -82 21q-14 0 -24.5 -2.5t-30 -12.5t-40.5 -37.5 t-42 -70.5q-9 -19 -27 -13l-45 17q-21 6 -12 26z" />
<glyph unicode="&#xf6;" horiz-adv-x="1204" d="M123 524q0 234 134.5 377t358.5 143q210 0 337.5 -140t127.5 -369q0 -252 -136.5 -403.5t-346.5 -151.5q-218 0 -346.5 152t-128.5 392zM248 532q0 -117 39.5 -217t120 -164.5t186.5 -64.5h18q152 0 247 125t95 317q0 176 -93 293t-259 117t-260 -112t-94 -294zM315 1384 q0 42 25.5 68.5t67.5 26.5t65 -27t23 -70q0 -45 -26.5 -70.5t-66.5 -25.5q-39 0 -63.5 27.5t-24.5 70.5zM711 1384q0 42 25 68.5t67 26.5t65 -27t23 -70q0 -46 -26 -71t-66 -25q-39 0 -63.5 27.5t-24.5 70.5z" />
<glyph unicode="&#xf7;" horiz-adv-x="1136" d="M61 602v66q0 20 21 20h932q20 0 20 -20v-66q0 -20 -20 -20h-932q-21 0 -21 20zM481 262q0 33 23.5 55.5t58.5 22.5q33 0 53.5 -25.5t20.5 -58.5q0 -34 -22.5 -57t-57.5 -23t-55.5 25t-20.5 61zM481 1004q0 33 23.5 56t58.5 23q34 0 54 -26t20 -60t-22.5 -55.5 t-57.5 -21.5t-55.5 24.5t-20.5 59.5z" />
<glyph unicode="&#xf8;" horiz-adv-x="1204" d="M123 524q0 234 134.5 377t358.5 143q119 0 211 -47l111 185q10 18 22 21t29 -7l23 -12q31 -19 14 -47l-115 -193q81 -69 125.5 -174t44.5 -235q0 -252 -136.5 -403.5t-346.5 -151.5q-125 0 -229 55l-99 -164q-10 -18 -22 -21t-29 7l-22 12q-32 19 -15 47l105 178 q-79 72 -121.5 183.5t-42.5 246.5zM248 532q0 -201 104 -329l416 696q-73 39 -166 39q-166 0 -260 -112t-94 -294zM428 135q74 -49 166 -49h18q152 0 247 125t95 317q0 195 -106 310z" />
<glyph unicode="&#xf9;" horiz-adv-x="1134" d="M170 453v536q0 28 29 31l61 6q33 3 33 -29v-518q0 -47 4 -121q6 -128 70.5 -199t189.5 -71q72 0 146 33.5t135 103.5v764q0 28 28 31l62 6q33 3 33 -29v-964q0 -28 -29 -31l-53 -6q-33 -3 -33 29l-2 90q-127 -135 -309 -135q-115 0 -198 47.5t-124 136.5q-43 90 -43 289z M256 1505l20 80q7 27 29 8l385 -293q14 -8 10 -26l-18 -60q-7 -24 -27 -10l-389 275q-14 8 -10 26z" />
<glyph unicode="&#xfa;" horiz-adv-x="1134" d="M170 453v536q0 28 29 31l61 6q33 3 33 -29v-518q0 -47 4 -121q6 -128 70.5 -199t189.5 -71q72 0 146 33.5t135 103.5v764q0 28 28 31l62 6q33 3 33 -29v-964q0 -28 -29 -31l-53 -6q-33 -3 -33 29l-2 90q-127 -135 -309 -135q-115 0 -198 47.5t-124 136.5q-43 90 -43 289z M410 1274q-4 18 10 26l387 293q9 7 16.5 5t10.5 -13l20 -80q4 -18 -10 -26l-389 -275q-20 -14 -27 10z" />
<glyph unicode="&#xfb;" horiz-adv-x="1134" d="M170 453v536q0 28 29 31l61 6q33 3 33 -29v-518q0 -47 4 -121q6 -128 70.5 -199t189.5 -71q72 0 146 33.5t135 103.5v764q0 28 28 31l62 6q33 3 33 -29v-964q0 -28 -29 -31l-53 -6q-33 -3 -33 29l-2 90q-127 -135 -309 -135q-115 0 -198 47.5t-124 136.5q-43 90 -43 289z M222 1253.5q0 8.5 7 14.5l330 305q15 15 29 0l311 -305q17 -17 -2 -29l-57 -43q-14 -14 -29 2l-250 250l-260 -244q-14 -14 -29 -2l-43 37q-7 6 -7 14.5z" />
<glyph unicode="&#xfc;" horiz-adv-x="1134" d="M170 453v536q0 28 29 31l61 6q33 3 33 -29v-518q0 -47 4 -121q6 -128 70.5 -199t189.5 -71q72 0 146 33.5t135 103.5v764q0 28 28 31l62 6q33 3 33 -29v-964q0 -28 -29 -31l-53 -6q-33 -3 -33 29l-2 90q-127 -135 -309 -135q-115 0 -198 47.5t-124 136.5q-43 90 -43 289z M279 1384q0 42 25 68.5t67 26.5t65 -27t23 -70q0 -46 -26 -71t-66 -25q-39 0 -63.5 27.5t-24.5 70.5zM674 1384q0 42 25 68.5t67 26.5t65 -27t23 -70q0 -46 -26 -71t-66 -25q-39 0 -63.5 27.5t-24.5 70.5z" />
<glyph unicode="&#xfd;" horiz-adv-x="1058" d="M41 989q-6 15 1 25t24 10h75q26 0 35 -25q229 -664 369 -1001q109 197 203 520q61 213 106 477q3 29 33 29h65q32 0 29 -33q-34 -212 -117 -491q-124 -410 -280 -647q-161 -243 -469 -381q-28 -13 -41 16l-21 49q-12 28 17 41q143 66 238.5 141t158.5 166 q-179 420 -426 1104zM340 1274q-4 18 10 26l387 293q9 7 16.5 5t10.5 -13l20 -80q4 -18 -10 -26l-389 -275q-20 -14 -27 10z" />
<glyph unicode="&#xfe;" horiz-adv-x="1169" d="M174 -481v2017q0 28 29 31l61 6q33 3 33 -29v-459l-4 -190q59 74 142.5 110.5t176.5 36.5q90 0 168.5 -32.5t138 -94t94 -159.5t34.5 -221q0 -259 -144.5 -409.5t-394.5 -150.5q-103 0 -211 23v-479q0 -31 -31 -31h-61q-31 0 -31 31zM297 119q100 -37 221 -37 q185 0 292.5 112.5t107.5 323.5q0 105 -27.5 187.5t-74 130.5t-101.5 72t-115 24q-172 0 -303 -150v-663z" />
<glyph unicode="&#xff;" horiz-adv-x="1058" d="M41 989q-6 15 1 25t24 10h75q26 0 35 -25q229 -664 369 -1001q109 197 203 520q61 213 106 477q3 29 33 29h65q32 0 29 -33q-34 -212 -117 -491q-124 -410 -280 -647q-161 -243 -469 -381q-28 -13 -41 16l-21 49q-12 28 17 41q143 66 238.5 141t158.5 166 q-179 420 -426 1104zM209 1384q0 42 25 68.5t67 26.5t65 -27t23 -70q0 -46 -26 -71t-66 -25q-39 0 -63.5 27.5t-24.5 70.5zM604 1384q0 42 25 68.5t67 26.5t65 -27t23 -70q0 -46 -26 -71t-66 -25q-39 0 -63.5 27.5t-24.5 70.5z" />
<glyph unicode="&#x152;" horiz-adv-x="2203" d="M154 745q0 180 63.5 326t177.5 240q201 166 533 166q103 0 274 -23h721q31 0 31 -31v-53q0 -31 -31 -31h-590v-542h543q31 0 31 -31v-49q0 -31 -31 -31h-543v-571h633q31 0 31 -33l-6 -53q-3 -29 -33 -29h-756q-200 -23 -303 -23q-304 0 -498 166q-122 104 -184.5 262.5 t-62.5 339.5zM293 766q0 -162 49 -297t147 -225q72 -68 176.5 -107t231.5 -39h18q132 0 287 29v1198q-141 31 -289 31q-269 0 -432 -135q-88 -73 -138 -195t-50 -260z" />
<glyph unicode="&#x153;" horiz-adv-x="1943" d="M123 524q0 234 134.5 377t358.5 143q135 0 238.5 -60.5t161.5 -170.5q59 111 161.5 171t235.5 60q178 0 286.5 -123t104.5 -348q-3 -30 -32 -30h-697q-4 -214 111 -334.5t309 -120.5q76 0 142.5 16t105 32t45.5 16q20 0 20 -31l-2 -35q0 -26 -22 -37q-132 -66 -299 -69 q-163 -1 -284.5 65t-184.5 191q-61 -122 -171 -189t-247 -67q-218 0 -346.5 152t-128.5 392zM248 532q0 -117 39.5 -217t120 -164.5t186.5 -64.5h18q152 0 247 125t95 317q0 176 -93 293t-259 117t-260 -112t-94 -294zM1081 641h594q0 142 -78.5 224.5t-205.5 82.5 q-120 0 -209 -82.5t-101 -224.5z" />
<glyph unicode="&#x178;" horiz-adv-x="1298" d="M61 1443q6 11 25 11h88q25 0 39 -20l453 -662l436 662q11 20 37 20h73q19 0 25 -11t-4 -26l-510 -764v-622q0 -31 -31 -31h-69q-31 0 -31 31v620l-526 766q-11 15 -5 26zM352 1751q0 39 25 64.5t67 25.5q41 0 64.5 -26t23.5 -66q0 -43 -26.5 -69.5t-65.5 -26.5 t-63.5 28.5t-24.5 69.5zM766 1751q0 39 25 64.5t67 25.5q41 0 64.5 -26t23.5 -66q0 -43 -26.5 -69.5t-65.5 -26.5t-63.5 28.5t-24.5 69.5z" />
<glyph unicode="&#x2c6;" horiz-adv-x="905" d="M112 1253.5q0 8.5 7 14.5l330 305q14 14 28 0l311 -305q17 -17 -2 -29l-57 -43q-13 -14 -29 2l-249 250l-261 -244q-14 -14 -28 -2l-43 37q-7 6 -7 14.5z" />
<glyph unicode="&#x2dc;" horiz-adv-x="919" d="M111 1253q30 80 69.5 127t75.5 61.5t80 14.5q43 0 137 -35l33 -12q54 -20 82 -20q15 0 25 2.5t29.5 12t40.5 37t42 70.5q9 19 27 13l45 -17q21 -6 12 -26q-30 -80 -69.5 -127t-75.5 -61.5t-80 -14.5t-138 35l-32 12q-56 21 -82 21q-14 0 -24.5 -2.5t-30 -12.5 t-40.5 -37.5t-42 -70.5q-9 -19 -27 -13l-45 17q-21 6 -12 26z" />
<glyph unicode="&#x2000;" horiz-adv-x="983" />
<glyph unicode="&#x2001;" horiz-adv-x="1966" />
<glyph unicode="&#x2002;" horiz-adv-x="983" />
<glyph unicode="&#x2003;" horiz-adv-x="1966" />
<glyph unicode="&#x2004;" horiz-adv-x="655" />
<glyph unicode="&#x2005;" horiz-adv-x="491" />
<glyph unicode="&#x2006;" horiz-adv-x="327" />
<glyph unicode="&#x2007;" horiz-adv-x="327" />
<glyph unicode="&#x2008;" horiz-adv-x="245" />
<glyph unicode="&#x2009;" horiz-adv-x="393" />
<glyph unicode="&#x200a;" horiz-adv-x="109" />
<glyph unicode="&#x2010;" horiz-adv-x="610" d="M41 532v62q0 20 20 20h488q20 0 20 -20v-62q0 -20 -20 -20h-488q-20 0 -20 20z" />
<glyph unicode="&#x2011;" horiz-adv-x="610" d="M41 532v62q0 20 20 20h488q20 0 20 -20v-62q0 -20 -20 -20h-488q-20 0 -20 20z" />
<glyph unicode="&#x2012;" horiz-adv-x="610" d="M41 532v62q0 20 20 20h488q20 0 20 -20v-62q0 -20 -20 -20h-488q-20 0 -20 20z" />
<glyph unicode="&#x2013;" horiz-adv-x="1024" d="M41 522v80q0 21 20 21h902q20 0 20 -21v-80q0 -20 -20 -20h-902q-20 0 -20 20z" />
<glyph unicode="&#x2014;" horiz-adv-x="2048" d="M41 522v80q0 21 20 21h1926q20 0 20 -21v-80q0 -20 -20 -20h-1926q-20 0 -20 20z" />
<glyph unicode="&#x2018;" horiz-adv-x="448" d="M113 1260q0 62 24 123t86 141q74 92 96 92q12 0 37 -19q33 -20 33 -32q0 -7 -21.5 -31.5t-47 -54.5t-47 -77t-21.5 -93q0 -36 10 -64.5t22.5 -42t22.5 -27.5t10 -24q0 -16 -25 -32.5t-54 -16.5q-59 0 -92 48t-33 110z" />
<glyph unicode="&#x2019;" horiz-adv-x="448" d="M59 1067q0 7 21.5 31.5t47.5 54.5t47.5 77t21.5 93t-16.5 78t-33 50t-16.5 30q0 16 25.5 32.5t54.5 16.5q59 0 92 -48t33 -110q0 -61 -24 -122.5t-87 -141.5q-74 -92 -96 -92q-13 0 -37 18q-33 20 -33 33z" />
<glyph unicode="&#x201a;" horiz-adv-x="448" d="M59 -248q0 6 21.5 31t47.5 55t47.5 77t21.5 93t-16.5 78t-33 50t-16.5 30q0 16 25.5 32.5t54.5 16.5q59 0 92 -48t33 -110q0 -61 -24 -122.5t-87 -141.5q-74 -92 -96 -92q-13 0 -37 18q-33 20 -33 33z" />
<glyph unicode="&#x201c;" horiz-adv-x="800" d="M113 1268q0 34 5.5 63.5t32.5 84t76 114.5q43 52 60.5 69t25.5 17q5 0 43 -23q33 -20 33 -28q0 -5 -21.5 -30.5t-47 -57t-47 -81.5t-21.5 -100q0 -49 27 -88q11 -16 22 -28t14.5 -17t3.5 -10q0 -15 -25 -33t-56 -18q-60 0 -92.5 49t-32.5 117zM475 1264q0 120 117 256 q41 47 55 60t23 13q7 0 39 -22q32 -21 32 -33q0 -6 -20.5 -29t-45 -51t-45 -72t-20.5 -86q0 -46 29 -90q7 -11 17.5 -22t16 -18t5.5 -13q0 -14 -24.5 -34.5t-55.5 -20.5q-57 0 -90 48.5t-33 113.5z" />
<glyph unicode="&#x201d;" horiz-adv-x="800" d="M59 1096q0 6 20.5 28.5t45 51t45 72t20.5 85.5q0 48 -28 90q-7 10 -17.5 21.5t-16 19t-5.5 13.5q0 14 24.5 34.5t55.5 20.5q57 0 90 -48.5t33 -113.5q0 -120 -117 -256q-42 -48 -55.5 -61t-22.5 -13q-6 0 -39 23q-33 22 -33 33zM412 1069q0 5 21.5 30t47 56.5t47 81.5 t21.5 100q0 49 -27 88q-9 13 -17.5 23.5t-13 15t-7.5 9t-3 8.5q0 15 25.5 33t56.5 18q60 0 92.5 -49t32.5 -117q0 -122 -115 -262q-43 -52 -60.5 -69t-25.5 -17q-7 0 -43 22q-32 19 -32 29z" />
<glyph unicode="&#x201e;" horiz-adv-x="800" d="M59 -221q0 6 20.5 28.5t45 51t45 72t20.5 85.5q0 48 -28 90q-7 10 -17.5 21.5t-16 19t-5.5 13.5q0 14 24.5 34.5t55.5 20.5q57 0 90 -48.5t33 -113.5q0 -120 -117 -256q-41 -47 -55 -60t-23 -13q-7 0 -39 22q-33 22 -33 33zM412 -248q0 5 21.5 30t47 56.5t47 81.5 t21.5 100t-27 89q-11 16 -22 28t-15 17t-4 10q0 15 25.5 33t56.5 18q60 0 92.5 -49t32.5 -117q0 -122 -115 -262q-43 -52 -60.5 -69t-25.5 -17q-5 0 -43 23q-32 19 -32 28z" />
<glyph unicode="&#x2022;" horiz-adv-x="456" d="M82 788q0 64 42 106t107 42q64 0 104 -47.5t40 -112.5q0 -60 -45 -100.5t-111 -40.5q-63 0 -100 45t-37 108z" />
<glyph unicode="&#x2026;" horiz-adv-x="1112" d="M133 82q0 39 27.5 67.5t70.5 28.5q41 0 67 -29.5t26 -72.5q0 -41 -28.5 -68.5t-70.5 -27.5q-39 0 -65.5 29.5t-26.5 72.5zM461 82q0 39 27.5 67.5t70.5 28.5q41 0 66.5 -29.5t25.5 -72.5q0 -41 -28.5 -68.5t-69.5 -27.5q-39 0 -65.5 29.5t-26.5 72.5zM788 82 q0 39 28 67.5t71 28.5q41 0 66.5 -29.5t25.5 -72.5q0 -41 -28.5 -68.5t-69.5 -27.5q-40 0 -66.5 29.5t-26.5 72.5z" />
<glyph unicode="&#x202f;" horiz-adv-x="393" />
<glyph unicode="&#x2039;" horiz-adv-x="663" d="M84 514q-12 14 0 29l383 436q13 15 29 2l53 -43q17 -14 2 -29l-330 -372l336 -390q15 -15 -2 -28l-55 -49q-16 -13 -31 2z" />
<glyph unicode="&#x203a;" horiz-adv-x="663" d="M106 907q-15 15 3 29l55 49q16 13 31 -2l385 -442q12 -15 0 -29l-383 -436q-13 -15 -29 -2l-53 43q-17 13 -2 28l329 373z" />
<glyph unicode="&#x205f;" horiz-adv-x="491" />
<glyph unicode="&#x20ac;" d="M61 543v53q0 20 21 20h125q-4 49 -4 119l6 113h-127q-21 0 -21 20v54q0 20 21 20h137q21 175 101 297t195.5 179t258.5 57q153 0 270 -45q18 -7 15 -25l-6 -74q-3 -20 -17 -20q-4 0 -37 11.5t-92.5 22.5t-130.5 11q-174 0 -288.5 -105t-135.5 -309h529q20 0 20 -20v-54 q0 -20 -20 -20h-539q-4 -52 -4 -113q0 -32 1.5 -61.5t2.5 -43.5l2 -14h537q20 0 20 -20v-53q0 -21 -20 -21h-529q22 -210 135 -316t285 -106q79 0 149 18.5t110 37t46 18.5q16 0 13 -22l-7 -74q0 -15 -16 -25q-137 -73 -307 -73q-236 0 -378.5 145t-166.5 397h-133 q-9 0 -15 6t-6 15z" />
<glyph unicode="&#x2122;" horiz-adv-x="2050" d="M82 1380v54q0 20 20 20h629q9 0 14.5 -5.5t4.5 -14.5l-5 -54q-3 -20 -22 -20h-258v-750q0 -20 -21 -20h-63q-21 0 -21 20v750h-258q-20 0 -20 20zM922 610l34 824q0 20 21 20h96q18 0 23 -16l321 -719l338 721q6 14 23 14h94q20 0 20 -20l35 -824q0 -20 -20 -20h-62 q-20 0 -20 20l-29 705l-334 -711q-6 -14 -22 -14h-56q-17 0 -22 16l-318 707l-26 -703q0 -20 -21 -20h-55q-20 0 -20 20z" />
<glyph unicode="&#xe000;" horiz-adv-x="1024" d="M0 0v1024h1024v-1024h-1024z" />
<glyph unicode="&#xfb01;" horiz-adv-x="1148" d="M41 928v26q0 28 29 31l135 14v37q0 71 2.5 115.5t12.5 107t34 113t63 92.5q113 119 338 119q110 0 217 -29q28 -9 25 -36l-4 -39q-3 -27 -29 -27q-4 0 -32 6t-77 12.5t-102 6.5q-169 0 -252 -86q-35 -37 -52 -95.5t-19 -102t-2 -132.5v-62h262q15 0 23.5 -8.5t7.5 -23.5 l-5 -41q-3 -29 -30 -29h-258v-866q0 -31 -31 -31h-61q-31 0 -31 31v866h-133q-31 0 -31 31zM852 31v956q0 28 29 31l61 6q33 3 33 -29v-964q0 -31 -31 -31h-61q-31 0 -31 31z" />
<glyph unicode="&#xfb02;" horiz-adv-x="1148" d="M41 928v26q0 28 29 31l135 14v37q0 71 2.5 115.5t12.5 107t34 113t63 92.5q113 119 338 119q109 0 197 -20l90 10q33 3 33 -29v-1513q0 -31 -31 -31h-61q-31 0 -31 31v1423q-92 23 -199 23q-169 0 -252 -86q-35 -37 -52 -95.5t-19 -102t-2 -132.5v-62h262q15 0 23.5 -8.5 t7.5 -23.5l-5 -41q-3 -29 -30 -29h-258v-866q0 -31 -31 -31h-61q-31 0 -31 31v866h-133q-31 0 -31 31z" />
</font>
</defs>
</svg>
